<?xml version="1.0" encoding="utf-8"?>
<!-- Generator: Adobe Illustrator 24.3.0, SVG Export Plug-In . SVG Version: 6.00 Build 0)  -->
<svg version="1.1" id="Слой_1" xmlns="http://www.w3.org/2000/svg" xmlns:xlink="http://www.w3.org/1999/xlink" x="0px" y="0px"
	 viewBox="0 0 795 200" style="enable-background:new 0 0 795 200;" xml:space="preserve">
<style type="text/css">
	.st0{fill:#15120E;}
	.st1{fill-rule:evenodd;clip-rule:evenodd;fill:#FFDC00;}
	.st2{fill-rule:evenodd;clip-rule:evenodd;fill:none;stroke:#15120E;stroke-width:9.709;stroke-miterlimit:7.6613;}
	.st3{fill-rule:evenodd;clip-rule:evenodd;fill:#12100C;}
</style>
<g>
	<g>
		<path class="st0" d="M278.39,118.94h-6.18c-4.69-7.62-7.43-12.05-8.23-13.28c-0.8-1.23-1.76-2.27-2.87-3.12
			c-1.12-0.85-2.48-1.28-4.09-1.28v17.67h-5V81.19h5v16.56c1.68-0.03,2.97-0.29,3.86-0.76c0.89-0.47,1.64-1.21,2.23-2.21
			s1.43-2.75,2.51-5.24c1.08-2.49,1.86-4.1,2.33-4.83c0.47-0.73,1.13-1.38,1.98-1.96c0.85-0.57,1.79-0.99,2.83-1.24
			c1.04-0.25,2.19-0.37,3.46-0.37c0.93,0,1.55,0.02,1.85,0.05v4.38l-1.96-0.08c-0.96,0-1.81,0.14-2.54,0.43
			c-0.73,0.28-1.29,0.73-1.69,1.33c-0.39,0.6-1.06,2-2.01,4.2c-1.13,2.64-2.08,4.49-2.83,5.55c-0.76,1.06-1.97,1.94-3.66,2.64
			c2.51,0.76,4.92,3.01,7.24,6.77L278.39,118.94z"/>
		<path class="st0" d="M299.17,80.54c5.29,0,9.61,1.79,12.98,5.38c3.36,3.59,5.05,8.32,5.05,14.19c0,5.85-1.69,10.56-5.07,14.13
			c-3.38,3.56-7.7,5.34-12.95,5.34c-5.44,0-9.82-1.85-13.13-5.54c-3.31-3.69-4.97-8.2-4.97-13.52c0-6.2,1.68-11.08,5.03-14.64
			C289.46,82.32,293.81,80.54,299.17,80.54z M299.12,115.31c3.83,0,6.93-1.34,9.31-4.02c2.38-2.68,3.58-6.4,3.59-11.18
			c0-4.91-1.21-8.69-3.64-11.33c-2.43-2.64-5.48-3.97-9.15-3.97c-3.78,0-6.88,1.3-9.32,3.89c-2.44,2.59-3.66,6.57-3.66,11.92
			c0,4.38,1.19,7.92,3.58,10.62C292.21,113.96,295.31,115.31,299.12,115.31z"/>
		<path class="st0" d="M360.06,118.94h-4.74v-31.6h-0.1l-10.87,31.6h-4.48l-10.82-32.11h-0.15v32.11h-4.74V81.19h7.47l8.94,26.73
			c1,2.97,1.57,4.83,1.73,5.59h0.1c0.46-1.46,1.13-3.48,2.01-6.05l9.01-26.27h6.64V118.94z"/>
		<path class="st0" d="M398.52,118.94h-5.02V85.61h-19.68v33.32h-5V81.19h29.69V118.94z"/>
		<path class="st0" d="M412.49,97.31h9.71c5.25,0,8.86,1.04,10.83,3.13c1.97,2.09,2.95,4.6,2.95,7.53c0,2.42-0.66,4.53-1.97,6.33
			c-1.31,1.8-2.93,3.03-4.84,3.67c-1.91,0.64-4.36,0.97-7.33,0.97h-14.34V81.19h5V97.31z M412.49,114.66h9.14
			c1.51,0,2.72-0.06,3.62-0.19c0.9-0.13,1.79-0.48,2.67-1.04c0.88-0.57,1.54-1.3,2-2.21c0.45-0.91,0.68-1.97,0.68-3.19
			c0-2.13-0.7-3.73-2.09-4.82c-1.39-1.08-4.23-1.62-8.52-1.62h-7.49V114.66z"/>
		<path class="st0" d="M454.84,98.1c0.45-5.49,2.24-9.79,5.37-12.9c3.13-3.11,7-4.66,11.6-4.66c5.03,0,9.15,1.76,12.35,5.29
			c3.2,3.53,4.8,8.2,4.8,14.02c0,6.03-1.58,10.82-4.75,14.38c-3.17,3.56-7.34,5.34-12.5,5.34c-4.53,0-8.31-1.48-11.34-4.44
			c-3.03-2.96-4.85-7.16-5.47-12.61h-7.34v16.4h-5V81.19h5V98.1H454.84z M471.76,115.31c3.74,0,6.68-1.35,8.82-4.04
			c2.14-2.7,3.21-6.46,3.21-11.31c0-4.7-1.08-8.4-3.23-11.1c-2.15-2.69-5.04-4.04-8.67-4.04c-3.71,0-6.64,1.37-8.79,4.1
			c-2.15,2.73-3.23,6.52-3.23,11.36c0,4.74,1.09,8.43,3.27,11.07C465.31,113.99,468.19,115.31,471.76,115.31z"/>
		<path class="st0" d="M522.97,85.67h-12.49v33.27h-5.02V85.67h-12.39v-4.48h29.9V85.67z"/>
		<path class="st0" d="M557.03,118.94h-28.2V81.19h27.32v4.48h-22.33V97.2h20.89v4.48h-20.89v12.77h23.2V118.94z"/>
		<path class="st0" d="M564.43,81.19h14.24c2.25,0,4.18,0.11,5.81,0.33c1.62,0.22,3.13,0.8,4.52,1.74c1.39,0.94,2.44,2.21,3.15,3.81
			c0.71,1.61,1.07,3.28,1.07,5.03c0,3.49-1.12,6.28-3.36,8.38c-2.24,2.1-5.83,3.15-10.78,3.15h-9.66v15.3h-5V81.19z M569.42,99.16
			h9.71c5.94,0,8.91-2.3,8.91-6.9c0-1.51-0.39-2.85-1.16-4c-0.77-1.16-1.72-1.88-2.85-2.16c-1.12-0.28-2.79-0.43-5.01-0.43h-9.61
			V99.16z"/>
		<path class="st0" d="M629.93,118.94h-5.02v-17.77h-19.62v17.77h-5V81.19h5v15.5h19.62v-15.5h5.02V118.94z"/>
		<path class="st0" d="M643.9,97.31h9.71c5.25,0,8.86,1.04,10.83,3.13c1.97,2.09,2.95,4.6,2.95,7.53c0,2.42-0.66,4.53-1.97,6.33
			c-1.31,1.8-2.93,3.03-4.84,3.67c-1.91,0.64-4.36,0.97-7.33,0.97H638.9V81.19h5V97.31z M643.9,114.66h9.14
			c1.51,0,2.72-0.06,3.62-0.19c0.9-0.13,1.79-0.48,2.67-1.04c0.88-0.57,1.54-1.3,2-2.21c0.45-0.91,0.68-1.97,0.68-3.19
			c0-2.13-0.7-3.73-2.09-4.82c-1.39-1.08-4.23-1.62-8.52-1.62h-7.49V114.66z M676.94,118.94h-5.02V81.19h5.02V118.94z"/>
		<path class="st0" d="M714.14,118.94h-28.2V81.19h27.32v4.48h-22.33V97.2h20.89v4.48h-20.89v12.77h23.2V118.94z"/>
	</g>
	<rect x="245.02" y="129.58" class="st1" width="522.14" height="40.15"/>
	<g>
		<path class="st0" d="M403.84,136.09h-12.49v33.27h-5.02v-33.27h-12.39v-4.48h29.9V136.09z"/>
		<path class="st0" d="M437.37,169.36h-28.2v-37.75h27.32v4.48h-22.33v11.54h20.89v4.48h-20.89v12.77h23.2V169.36z"/>
		<path class="st0" d="M475.58,169.36h-6.18l-7.57-10.71c-1.85-2.63-3.02-4.39-3.5-5.28h-0.1c0,0.31-3.74,5.64-11.23,15.99h-6.03
			l14.63-19.68l-12.93-18.08h5.95l7.96,11.28c0.86,1.22,1.49,2.24,1.91,3.06c0.67-1.15,4.21-5.93,10.61-14.34h5.43l-13.24,17.77
			L475.58,169.36z"/>
		<path class="st0" d="M510.28,169.36h-5.02v-17.77h-19.62v17.77h-5v-37.75h5v15.5h19.62v-15.5h5.02V169.36z"/>
		<path class="st0" d="M535.6,130.96c5.29,0,9.61,1.79,12.98,5.38c3.36,3.59,5.05,8.32,5.05,14.19c0,5.85-1.69,10.56-5.07,14.13
			c-3.38,3.56-7.7,5.34-12.95,5.34c-5.44,0-9.82-1.85-13.13-5.54c-3.31-3.69-4.97-8.2-4.97-13.52c0-6.2,1.68-11.08,5.03-14.64
			C525.89,132.74,530.25,130.96,535.6,130.96z M535.55,165.73c3.83,0,6.93-1.34,9.31-4.02c2.38-2.68,3.58-6.4,3.59-11.18
			c0-4.91-1.21-8.69-3.64-11.33c-2.43-2.64-5.48-3.97-9.15-3.97c-3.78,0-6.89,1.3-9.32,3.89c-2.44,2.59-3.66,6.57-3.66,11.92
			c0,4.38,1.19,7.92,3.58,10.62C528.64,164.38,531.74,165.73,535.55,165.73z"/>
		<path class="st0" d="M589.54,169.36h-5.02v-33.32h-16.07v20.04c0,3.28-0.17,5.87-0.5,7.76c-0.33,1.9-1.12,3.39-2.34,4.48
			c-1.23,1.09-2.76,1.63-4.6,1.63c-1.22,0-2.54-0.2-3.97-0.59l0.85-4.43c0.84,0.34,1.55,0.52,2.11,0.52c1.22,0,2.09-0.47,2.63-1.4
			c0.53-0.94,0.8-2.68,0.8-5.24v-27.19h26.11V169.36z"/>
		<path class="st0" d="M614.87,130.96c5.29,0,9.61,1.79,12.98,5.38c3.36,3.59,5.05,8.32,5.05,14.19c0,5.85-1.69,10.56-5.07,14.13
			c-3.38,3.56-7.7,5.34-12.95,5.34c-5.44,0-9.82-1.85-13.13-5.54c-3.31-3.69-4.97-8.2-4.97-13.52c0-6.2,1.68-11.08,5.03-14.64
			S609.51,130.96,614.87,130.96z M614.82,165.73c3.83,0,6.93-1.34,9.31-4.02c2.38-2.68,3.58-6.4,3.59-11.18
			c0-4.91-1.21-8.69-3.64-11.33c-2.43-2.64-5.48-3.97-9.15-3.97c-3.78,0-6.88,1.3-9.32,3.89c-2.44,2.59-3.66,6.57-3.66,11.92
			c0,4.38,1.19,7.92,3.58,10.62C607.91,164.38,611.01,165.73,614.82,165.73z"/>
		<path class="st0" d="M664.48,136.03h-19.42v33.32h-5v-37.75h24.41V136.03z"/>
		<path class="st0" d="M700.19,169.36h-4.64v-30.44l-20.06,30.44h-5.05v-37.75h4.64v30.52l20.04-30.52h5.07V169.36z"/>
		<path class="st0" d="M738.8,169.36h-4.64v-30.44l-20.06,30.44h-5.05v-37.75h4.64v30.52l20.04-30.52h5.07V169.36z"/>
	</g>
	<line class="st2" x1="507.78" y1="85.12" x2="507.78" y2="169.44"/>
	
		<ellipse transform="matrix(0.1726 -0.985 0.985 0.1726 10.6605 217.6043)" class="st1" cx="134.86" cy="102.46" rx="82.41" ry="82.41"/>
	<path class="st1" d="M134.86,9.5C83.5,9.5,41.9,51.1,41.9,102.46c0,51.36,41.6,92.96,92.96,92.96c51.36,0,92.96-41.6,92.96-92.96
		C227.82,51.1,186.22,9.5,134.86,9.5z M134.86,9.5L134.86,9.5L134.86,9.5z M134.86,189.15L134.86,189.15
		c-47.86,0-86.69-38.83-86.69-86.69c0-47.86,38.83-86.69,86.69-86.69c47.86,0,86.69,38.83,86.69,86.69
		C221.55,150.32,182.72,189.15,134.86,189.15z"/>
	<path class="st3" d="M48.96,185.85c0,0,100.21-90.32,96.91-115.37C142.64,45.43,25.88,30.93,25.88,30.93s83.07,25.65,82.41,50.76
		C107.63,106.68,48.96,185.85,48.96,185.85z"/>
	<path class="st3" d="M220.83,19.06c0,0-100.27,90.32-96.98,115.37c3.3,25.05,120.05,39.56,120.05,39.56s-83.13-25.71-82.47-50.76
		C162.15,98.17,220.83,19.06,220.83,19.06z"/>
</g>
</svg>
