<?xml version="1.0" encoding="utf-8"?>
<!-- Generator: Adobe Illustrator 24.3.0, SVG Export Plug-In . SVG Version: 6.00 Build 0)  -->
<svg version="1.1" id="Слой_1" xmlns="http://www.w3.org/2000/svg" xmlns:xlink="http://www.w3.org/1999/xlink" x="0px" y="0px"
	 viewBox="0 0 1400 200" style="enable-background:new 0 0 1400 200;" xml:space="preserve">
<style type="text/css">
	.st0{fill:#E42221;}
	.st1{fill:#1D1D1B;}
</style>
<path class="st0" d="M92.1,100.6c0-9.14,0-14.22-3.32-17.54c-3.32-3.32-8.4-3.32-17.54-3.32H50.37c-9.14,0-14.22,0-17.54,3.32
	c-3.32,3.32-3.32,8.4-3.32,17.54v20.86c0,9.14,0,14.22,3.32,17.54c3.32,3.32,8.4,3.32,17.54,3.32h20.86c9.14,0,14.22,0,17.54-3.32
	c3.32-3.32,3.32-8.4,3.32-17.54V100.6z"/>
<path class="st1" d="M711.55,78.51c-17.91,0-32.43,13.71-32.43,32.52c0,18.7,14.03,32.52,32.95,32.52c14.04,0,26.65-8,30.87-20.44
	h-17.72c-2.66,4.14-7.81,6.49-13.16,6.49c-8.4,0-14.37-5.54-16.06-13.7h31.18h16.52h0.04l-0.03-0.05c0.22-1.57,0.36-3.17,0.36-4.82
	C744.09,92.22,729.58,78.51,711.55,78.51 M711.55,92.45c7.17,0,12.83,4.6,15.08,11.6h-30.05C698.82,97.06,704.43,92.45,711.55,92.45
	 M884.57,104.47v37.85h-16.58v-35.33c0-7.77-5.51-13.07-13.34-13.07c-7.83,0-13.34,5.3-13.34,13.07v35.33h-16.58V55.63h16.58v30.12
	h1.25c4.21-4.73,10.48-7.25,17.64-7.25C874.55,78.51,884.57,89.15,884.57,104.47 M798.2,117.87h17.11
	c-2.19,15-15.16,25.68-31.02,25.68c-18.14,0-32.17-13.82-32.17-32.52c0-18.81,14.25-32.52,32.17-32.52
	c15.66,0,28.78,9.87,31.01,25.15h-17.15c-1.89-6.39-7.03-9.74-13.87-9.74c-9.18,0-15.58,7.2-15.58,17.11
	c0,9.91,6.4,17.11,15.58,17.11C791.25,128.14,796.62,124.19,798.2,117.87 M646.94,79.73h25.58v15.41h-25.58v19.13
	c0,9.11,3.91,12.64,12.62,12.64h12.96v15.41h-16.09c-17.65,0-26.07-9.18-26.07-26.08v-60.6h16.58V79.73z M999.2,78.51
	c-17.91,0-32.43,13.71-32.43,32.52c0,18.7,14.29,32.52,32.43,32.52c18.26,0,32.54-13.71,32.54-32.52
	C1031.74,92.22,1017.23,78.51,999.2,78.51 M999.2,128.14c-9.18,0-15.85-7.19-15.85-17.11c0-9.91,6.66-17.11,15.85-17.11
	c9.25,0,15.96,7.2,15.96,17.11C1015.16,121.1,1008.6,128.14,999.2,128.14 M1099.62,78.51c-17.91,0-32.43,13.71-32.43,32.52
	c0,18.7,14.29,32.52,32.43,32.52c18.25,0,32.54-13.71,32.54-32.52C1132.16,92.22,1117.65,78.51,1099.62,78.51 M1099.62,128.14
	c-9.18,0-15.85-7.19-15.85-17.11c0-9.91,6.66-17.11,15.85-17.11c9.25,0,15.96,7.2,15.96,17.11
	C1115.58,121.1,1109.02,128.14,1099.62,128.14 M1219.19,55.63h16.58v15.41h-16.58V55.63z M1219.19,79.73h16.58v62.59h-16.58V79.73z
	 M1278.34,78.51c-17.91,0-32.43,13.71-32.43,32.52c0,18.7,14.03,32.52,32.95,32.52c14.04,0,26.65-8,30.87-20.44h-17.72
	c-2.66,4.14-7.81,6.49-13.16,6.49c-8.4,0-14.37-5.54-16.06-13.7h31.18h16.52h0.04l-0.03-0.05c0.21-1.57,0.36-3.17,0.36-4.82
	C1310.88,92.22,1296.37,78.51,1278.34,78.51 M1278.34,92.45c7.17,0,12.83,4.6,15.08,11.6h-30.05
	C1265.6,97.06,1271.21,92.45,1278.34,92.45 M1041.18,55.63h16.58v86.69h-16.58V55.63z M957.86,104.47v37.85h-16.58v-35.33
	c0-7.77-5.51-13.07-13.34-13.07c-7.82,0-13.34,5.3-13.34,13.07v35.33h-16.58V79.73h16.58v6.02h1.25c4.21-4.73,10.48-7.25,17.64-7.25
	C947.83,78.51,957.86,89.15,957.86,104.47 M1187.98,85.76h-1.31c-0.04-0.05-0.11-0.12-0.12-0.14c-4.15-4.57-10.61-7.11-17.69-7.11
	c-17.04,0-28.67,13.45-28.67,31.91c0,18.46,11.63,31.91,28.67,31.91c7.62,0,13.85-3,17.69-7.11h1.43v6.45
	c0,9.11-3.91,12.64-12.62,12.64h-25.61v15.41h28.74c17.65,0,26.07-9.17,26.07-26.08V79.73h-16.58V85.76z M1156.76,110.41
	c0-9.73,6.6-16.79,15.7-16.79c9.03,0,15.51,7.06,15.51,16.78v0.01c0,9.72-6.48,16.78-15.51,16.78
	C1163.36,127.2,1156.76,120.14,1156.76,110.41 M1374,124.26c0,10.31-8.97,19.28-27.26,19.28c-23.32,0-28.31-16.22-28.31-20.77h16.56
	c0,3.33,3.51,7.45,11.75,7.45s11.14-2.93,11.14-5.96c0-3.03-1.38-5.43-8.25-6.53l-9.91-1.51c-12.88-2.09-20.51-7.65-20.51-18.08
	s8.94-19.64,26.12-19.64c19.11,0,27.44,12.69,27.44,20.77h-16.56c0-4.14-3.81-7.45-10.87-7.45s-10,2.51-10,6.32
	c0,2.95,2.3,4.49,8.07,5.35l10.43,1.6C1366.73,107.05,1374,113.1,1374,124.26 M506.23,79.73h17.3l-18.88,62.59h-25.13l-18.88-62.59
	h17.3l12.83,47.18h2.63L506.23,79.73z M246.48,78.51c-17.91,0-32.43,13.71-32.43,32.52c0,18.7,14.29,32.52,32.43,32.52
	c18.25,0,32.54-13.71,32.54-32.52C279.02,92.22,264.5,78.51,246.48,78.51 M246.48,128.14c-9.18,0-15.85-7.19-15.85-17.11
	c0-9.91,6.66-17.11,15.85-17.11c9.25,0,15.96,7.2,15.96,17.11C262.43,121.1,255.87,128.14,246.48,128.14 M352.05,55.63h16.58v15.41
	h-16.58V55.63z M352.05,79.73h16.58v62.59h-16.58V79.73z M436.03,55.63h16.58v15.41h-16.58V55.63z M436.03,79.73h16.58v62.59h-16.58
	V79.73z M557.6,78.51c-17.91,0-32.43,13.71-32.43,32.52c0,18.7,14.03,32.52,32.95,32.52c14.04,0,26.65-8,30.87-20.44h-17.72
	c-2.66,4.14-7.81,6.49-13.16,6.49c-8.4,0-14.37-5.54-16.06-13.7h31.18h16.52h0.04l-0.03-0.05c0.21-1.57,0.36-3.17,0.36-4.82
	C590.14,92.22,575.63,78.51,557.6,78.51 M557.6,92.45c7.18,0,12.83,4.6,15.08,11.6h-30.05C544.86,97.06,550.48,92.45,557.6,92.45
	 M177.87,78.51c-7.08,0-13.54,2.6-17.69,7.25c0,0,0,0,0,0h-1.43v-6.02h-16.58v86.69h16.58V136.3h1.43
	c3.84,4.19,10.07,7.25,17.69,7.25c17.05,0,28.68-13.71,28.68-32.52S194.92,78.51,177.87,78.51 M174.27,128.14
	c-9.04,0-15.51-7.2-15.51-17.11c0-9.91,6.48-17.11,15.51-17.11c9.1,0,15.7,7.2,15.7,17.11
	C189.97,120.94,183.36,128.14,174.27,128.14 M399.84,79.73h25.58v15.41h-25.58v19.13c0,9.11,3.91,12.64,12.62,12.64h12.96v15.41
	h-16.09c-17.65,0-26.07-9.18-26.07-26.08v-60.6h16.58V79.73z M341.67,124.26c0,10.31-8.97,19.28-27.26,19.28
	c-23.32,0-28.31-16.22-28.31-20.77h16.56c0,3.33,3.51,7.45,11.75,7.45c8.24,0,11.14-2.93,11.14-5.96c0-3.03-1.38-5.43-8.25-6.53
	l-9.9-1.51c-12.89-2.09-20.51-7.65-20.51-18.08s8.94-19.64,26.12-19.64c19.11,0,27.43,12.69,27.43,20.77h-16.56
	c0-4.14-3.81-7.45-10.87-7.45c-7.06,0-10,2.51-10,6.32c0,2.95,2.3,4.49,8.07,5.35l10.43,1.6
	C334.39,107.05,341.67,113.1,341.67,124.26"/>
</svg>
