<?xml version="1.0" encoding="utf-8"?>
<!-- Generator: Adobe Illustrator 24.3.0, SVG Export Plug-In . SVG Version: 6.00 Build 0)  -->
<svg version="1.1" id="Слой_1" xmlns="http://www.w3.org/2000/svg" xmlns:xlink="http://www.w3.org/1999/xlink" x="0px" y="0px"
	 viewBox="0 0 520 200" style="enable-background:new 0 0 520 200;" xml:space="preserve">
<style type="text/css">
	.st0{fill-rule:evenodd;clip-rule:evenodd;fill:#CC1719;}
	.st1{fill-rule:evenodd;clip-rule:evenodd;fill:#717E85;}
	.st2{fill:#1D1D1B;}
</style>
<g>
	<path class="st0" d="M160.59,16.24c7.72,0,13.98,6.26,13.98,13.98c0,7.72-6.26,13.98-13.98,13.98c-7.72,0-13.98-6.26-13.98-13.98
		C146.61,22.5,152.87,16.24,160.59,16.24L160.59,16.24z"/>
	<path class="st1" d="M160.39,63.25c25.41,0,46.99,16.42,54.71,39.22h-25.97c-6.09-9.42-16.68-15.66-28.73-15.66
		c-12.05,0-22.65,6.24-28.73,15.66h-25.98C113.4,79.66,134.97,63.25,160.39,63.25L160.39,63.25z M216.65,107.95
		c0.4,1.71,0.71,3.46,0.95,5.23h-23.93c-0.42-1.8-0.99-3.55-1.68-5.23H216.65L216.65,107.95z M127.1,113.18h-23.93
		c0.24-1.77,0.56-3.51,0.95-5.23h24.66C128.08,109.63,127.52,111.38,127.1,113.18L127.1,113.18z M218.09,118.67
		c0.03,0.78,0.05,1.55,0.05,2.33c0,0.97-0.02,1.94-0.07,2.89h-23.62c0.08-0.95,0.12-1.92,0.12-2.89c0-0.79-0.03-1.56-0.08-2.33
		H218.09L218.09,118.67z M126.32,123.89H102.7c-0.05-0.96-0.07-1.92-0.07-2.89c0-0.78,0.02-1.56,0.05-2.33h23.6
		c-0.05,0.77-0.08,1.55-0.08,2.33C126.2,121.98,126.24,122.94,126.32,123.89L126.32,123.89z M217.53,129.38
		c-0.26,1.77-0.6,3.51-1.01,5.23h-24.77c0.73-1.68,1.33-3.43,1.78-5.23H217.53L217.53,129.38z M129.01,134.61h-24.77
		c-0.41-1.72-0.75-3.46-1.01-5.23h23.99C127.69,131.18,128.28,132.93,129.01,134.61L129.01,134.61z M214.91,140.09
		c-7.88,22.52-29.31,38.67-54.52,38.67c-25.21,0-46.64-16.15-54.52-38.67h26.16c6.14,9.11,16.55,15.1,28.37,15.1
		c11.81,0,22.23-5.99,28.37-15.1H214.91L214.91,140.09z"/>
	<path class="st1" d="M172.63,49.22v53.25h-24.08V49.22c2.98,3.26,7.27,5.31,12.04,5.31C165.36,54.53,169.65,52.48,172.63,49.22
		L172.63,49.22z M172.63,107.95v5.23h-24.08v-5.23H172.63L172.63,107.95z M172.63,118.67v5.23h-24.08v-5.23H172.63L172.63,118.67z
		 M172.63,129.38v5.23h-24.08v-5.23H172.63L172.63,129.38z M172.63,140.09v8.29h-24.08v-8.29H172.63L172.63,140.09z"/>
	<path class="st2" d="M228.8,116.67v-1.82h2.55v-14.6h-2.55v-1.82h7.96v1.82h-2.56v10.46l7.52-8.83v-1.63h-2.56v-1.82h7.96v1.82
		h-2.55v14.6h2.55v1.82h-7.96v-1.82h2.56v-10.19l-7.52,8.84v1.35h2.56v1.82H228.8L228.8,116.67z M265.63,100.25v14.6h2.55v1.82
		h-7.96v-1.82h2.56v-7.03h-7.52v7.03h2.56v1.82h-7.96v-1.82h2.55v-14.6h-2.55v-1.82h7.96v1.82h-2.56v5.44h7.52v-5.44h-2.56v-1.82
		h7.96v1.82H265.63L265.63,100.25z M280.82,99.99v-8.22h-2.73v-1.8h5.57v10.02l1.03-1.2c0.49-0.57,1.28-0.85,2.37-0.85
		c1.34,0,2.73,0.86,4.17,2.59c1.44,1.73,2.17,4.06,2.17,7.02c0,2.96-0.73,5.31-2.17,7.04c-1.44,1.73-2.83,2.59-4.17,2.59
		c-1.08,0-1.87-0.29-2.37-0.86l-1.03-1.2v7.05h2.56v1.82h-7.96v-1.82h2.55v-7.05l-1.03,1.2c-0.49,0.57-1.28,0.86-2.37,0.86
		c-1.34,0-2.73-0.87-4.18-2.6c-1.45-1.73-2.17-4.08-2.17-7.03c0-2.96,0.73-5.3,2.17-7.02c1.45-1.72,2.83-2.58,4.18-2.58
		c1.09,0,1.87,0.29,2.37,0.85L280.82,99.99L280.82,99.99z M280.82,101.69l-1.03-1.2c-0.41-0.46-1.02-0.69-1.82-0.69
		c-0.85,0-1.65,0.63-2.42,1.9c-0.77,1.26-1.15,3.21-1.15,5.84c0,2.65,0.39,4.6,1.15,5.86c0.77,1.26,1.57,1.9,2.42,1.9
		c0.8,0,1.41-0.23,1.82-0.69l1.03-1.2V101.69L280.82,101.69z M283.66,101.69v11.72l1.03,1.2c0.42,0.46,1.01,0.69,1.8,0.69
		c0.85,0,1.67-0.64,2.44-1.91c0.77-1.26,1.15-3.21,1.15-5.85c0-2.64-0.38-4.59-1.15-5.85c-0.77-1.25-1.58-1.89-2.44-1.89
		c-0.79,0-1.39,0.23-1.8,0.69L283.66,101.69L283.66,101.69z M304.1,115.47c1.53,0,2.69-0.67,3.47-2.01
		c0.78-1.34,1.17-3.31,1.17-5.92c0-2.61-0.39-4.57-1.17-5.91c-0.78-1.33-1.93-2-3.47-2c-1.52,0-2.67,0.67-3.45,2
		c-0.78,1.34-1.17,3.3-1.17,5.91c0,2.61,0.39,4.58,1.18,5.92C301.44,114.8,302.59,115.47,304.1,115.47L304.1,115.47z M304.1,117.16
		c-2.38,0-4.29-0.88-5.74-2.64c-1.45-1.76-2.18-4.09-2.18-6.99c0-2.9,0.72-5.23,2.17-6.98c1.45-1.75,3.37-2.62,5.76-2.62
		c2.4,0,4.33,0.87,5.77,2.62c1.45,1.75,2.17,4.08,2.17,6.98c0,2.9-0.73,5.23-2.17,6.99C308.43,116.29,306.5,117.16,304.1,117.16
		L304.1,117.16z M320.1,106.65v1.8c0,2.2,0.38,3.86,1.14,5.02c0.76,1.15,1.85,1.72,3.29,1.72c1.45,0,2.55-0.64,3.3-1.94
		c0.75-1.29,1.12-3.2,1.12-5.72c0-2.52-0.37-4.43-1.12-5.71c-0.75-1.28-1.85-1.92-3.3-1.92c-1.44,0-2.54,0.57-3.29,1.73
		C320.48,102.79,320.1,104.46,320.1,106.65L320.1,106.65z M317.26,100.26h-2.73v-1.83h5.57v2.85c0.56-1.14,1.27-1.99,2.13-2.53
		c0.85-0.54,1.92-0.81,3.19-0.81c2.01,0,3.65,0.88,4.93,2.66c1.28,1.77,1.91,4.09,1.91,6.95c0,2.86-0.64,5.18-1.91,6.96
		c-1.28,1.78-2.92,2.67-4.93,2.67c-1.27,0-2.34-0.27-3.19-0.81c-0.86-0.54-1.57-1.39-2.13-2.53v8.32h2.69v1.83h-8.27v-1.83h2.73
		V100.26L317.26,100.26z M334.99,116.67v-1.82h2.56v-14.6h-2.56v-1.82h6.64l4.63,12.54l4.61-12.54h6.42v1.82h-2.56v14.6h2.56v1.82
		h-7.96v-1.82h2.55v-14.1l-5.18,14.09h-2.09l-5.16-14.09v14.1h2.56v1.82H334.99L334.99,116.67z M371.02,110.93v-3.86h-3.67
		c-1.41,0-2.45,0.34-3.14,1.01c-0.69,0.67-1.04,1.71-1.04,3.1c0,1.27,0.35,2.28,1.05,3.02c0.7,0.74,1.65,1.11,2.84,1.11
		c1.19,0,2.14-0.4,2.87-1.22C370.66,113.3,371.02,112.24,371.02,110.93L371.02,110.93z M373.85,105.28v9.57h2.54v1.82h-5.37v-1.97
		c-0.63,0.85-1.35,1.47-2.18,1.87c-0.82,0.4-1.79,0.6-2.9,0.6c-1.82,0-3.26-0.54-4.33-1.61c-1.07-1.08-1.6-2.53-1.6-4.36
		c0-1.89,0.61-3.35,1.83-4.39c1.22-1.04,2.95-1.56,5.18-1.56h3.99v-1.25c0-1.38-0.38-2.45-1.14-3.21c-0.76-0.76-1.82-1.14-3.19-1.14
		c-1.14,0-2.04,0.29-2.71,0.86c-0.66,0.57-1.08,1.42-1.25,2.54h-1.46v-3.69c0.98-0.47,1.94-0.82,2.87-1.05
		c0.93-0.23,1.84-0.35,2.72-0.35c2.28,0,4.01,0.63,5.2,1.88C373.26,101.06,373.85,102.88,373.85,105.28L373.85,105.28z
		 M393.08,116.67h-14.67v-1.8h2.56v-14.62h-2.56v-1.82h7.96v1.82h-2.56v14.31h7.51v-14.31h-2.57v-1.82h7.98v1.82h-2.55v14.6h2.55
		v6.68h-1.61l-0.24-2.42C394.71,117.48,394.12,116.67,393.08,116.67L393.08,116.67z M398.68,116.67v-1.82h2.55v-14.6h-2.55v-1.82
		h7.96v1.82h-2.56v10.46l7.52-8.83v-1.63h-2.56v-1.82H417v1.82h-2.55v14.6H417v1.82h-7.96v-1.82h2.56v-10.19l-7.52,8.84v1.35h2.56
		v1.82H398.68L398.68,116.67z M428.17,115.47c1.53,0,2.69-0.67,3.47-2.01c0.78-1.34,1.17-3.31,1.17-5.92c0-2.61-0.39-4.57-1.17-5.91
		c-0.78-1.33-1.93-2-3.47-2c-1.52,0-2.67,0.67-3.45,2c-0.78,1.34-1.17,3.3-1.17,5.91c0,2.61,0.39,4.58,1.18,5.92
		C425.51,114.8,426.66,115.47,428.17,115.47L428.17,115.47z M428.17,117.16c-2.38,0-4.29-0.88-5.74-2.64
		c-1.45-1.76-2.18-4.09-2.18-6.99c0-2.9,0.72-5.23,2.17-6.98c1.45-1.75,3.37-2.62,5.76-2.62c2.4,0,4.33,0.87,5.77,2.62
		c1.45,1.75,2.17,4.08,2.17,6.98c0,2.9-0.73,5.23-2.17,6.99C432.5,116.29,430.57,117.16,428.17,117.16L428.17,117.16z
		 M454.54,100.25v14.6h2.55v1.82h-7.96v-1.82h2.56v-7.03h-7.52v7.03h2.56v1.82h-7.96v-1.82h2.55v-14.6h-2.55v-1.82h7.96v1.82h-2.56
		v5.44h7.52v-5.44h-2.56v-1.82h7.96v1.82H454.54L454.54,100.25z M475.61,100.25v14.6h2.55v1.82h-7.96v-1.82h2.56v-7.03h-7.52v7.03
		h2.56v1.82h-7.96v-1.82h2.55v-14.6h-2.55v-1.82h7.96v1.82h-2.56v5.44h7.52v-5.44h-2.56v-1.82h7.96v1.82H475.61L475.61,100.25z
		 M489.34,115.47c1.53,0,2.69-0.67,3.47-2.01c0.78-1.34,1.17-3.31,1.17-5.92c0-2.61-0.39-4.57-1.17-5.91c-0.78-1.33-1.93-2-3.47-2
		c-1.52,0-2.67,0.67-3.45,2c-0.78,1.34-1.17,3.3-1.17,5.91c0,2.61,0.39,4.58,1.18,5.92C486.68,114.8,487.83,115.47,489.34,115.47
		L489.34,115.47z M489.34,117.16c-2.38,0-4.29-0.88-5.74-2.64c-1.45-1.76-2.18-4.09-2.18-6.99c0-2.9,0.72-5.23,2.17-6.98
		c1.45-1.75,3.37-2.62,5.76-2.62c2.4,0,4.33,0.87,5.77,2.62c1.45,1.75,2.17,4.08,2.17,6.98c0,2.9-0.73,5.23-2.17,6.99
		C493.67,116.29,491.74,117.16,489.34,117.16L489.34,117.16z M516,107.88h-12.25v0.13c0,2.46,0.42,4.32,1.25,5.57
		c0.83,1.25,2.06,1.88,3.69,1.88c1.25,0,2.27-0.36,3.07-1.09c0.8-0.73,1.36-1.8,1.68-3.23h2.28c-0.46,2-1.29,3.5-2.51,4.51
		c-1.22,1.01-2.82,1.51-4.81,1.51c-2.4,0-4.33-0.88-5.78-2.64c-1.45-1.76-2.18-4.09-2.18-6.99c0-2.88,0.71-5.2,2.14-6.96
		c1.43-1.76,3.3-2.64,5.63-2.64c2.48,0,4.39,0.85,5.71,2.55C515.25,102.18,515.94,104.64,516,107.88L516,107.88z M512.65,106.06
		c-0.06-2.13-0.47-3.73-1.22-4.81c-0.74-1.08-1.82-1.62-3.22-1.62c-1.31,0-2.33,0.54-3.08,1.63c-0.75,1.09-1.21,2.69-1.38,4.8
		H512.65L512.65,106.06z M237.22,150.34c1.53,0,2.69-0.67,3.47-2.01c0.78-1.34,1.17-3.31,1.17-5.92c0-2.61-0.39-4.57-1.17-5.91
		c-0.78-1.33-1.93-2-3.47-2c-1.52,0-2.67,0.67-3.45,2c-0.78,1.34-1.17,3.3-1.17,5.91c0,2.61,0.39,4.58,1.18,5.92
		C234.56,149.67,235.71,150.34,237.22,150.34L237.22,150.34z M237.22,152.03c-2.38,0-4.29-0.88-5.74-2.64
		c-1.45-1.76-2.18-4.09-2.18-6.99c0-2.9,0.72-5.23,2.17-6.98c1.45-1.75,3.37-2.62,5.76-2.62c2.4,0,4.33,0.87,5.77,2.62
		c1.45,1.75,2.17,4.08,2.17,6.98c0,2.9-0.73,5.23-2.17,6.99C241.55,151.16,239.62,152.03,237.22,152.03L237.22,152.03z
		 M248.3,142.41l-0.14-3.02c-0.06-1.22-0.08-2.11-0.08-2.64c0-0.54,0.06-1.29,0.19-2.25c0.12-0.96,0.36-1.84,0.7-2.62
		c0.93-2.05,2.26-3.54,3.99-4.46c0.97-0.52,2.16-0.85,3.58-1.01c1.42-0.16,2.35-0.32,2.78-0.48c0.43-0.16,0.87-0.43,1.34-0.81
		c0.47-0.37,0.73-0.66,0.8-0.85h1.63c-0.15,1.08-0.62,2.17-1.42,3.26c-0.8,1.09-1.58,1.69-2.32,1.82c-3.48,0.6-5.56,1.04-6.22,1.32
		c-0.66,0.28-1.5,1.04-2.53,2.28c-0.67,0.81-1.01,2.29-1.01,4.43c0.56-1.21,1.31-2.28,2.25-3.21c0.93-0.9,2.4-1.35,4.41-1.35
		c2.39,0,4.31,0.87,5.76,2.62c1.45,1.75,2.17,4.08,2.17,6.98c0,2.9-0.73,5.23-2.17,6.99c-1.45,1.76-3.37,2.64-5.76,2.64
		c-2.39,0-4.27-0.84-5.66-2.51C249.21,147.86,248.45,145.49,248.3,142.41L248.3,142.41z M256.24,134.5c-3.09,0-4.63,2.64-4.63,7.91
		c0,2.61,0.39,4.58,1.18,5.92c0.78,1.34,1.93,2.01,3.45,2.01c3.07,0,4.61-2.64,4.61-7.93C260.86,137.14,259.32,134.5,256.24,134.5
		L256.24,134.5z M286.34,133.3h7.96v1.82h-2.55v14.6h2.55v6.68h-1.59l-0.26-2.42c-0.16-1.62-0.76-2.44-1.79-2.44h-23.75v-1.82h2.56
		v-14.6h-2.56v-1.82h7.96v1.82h-2.56v14.31h6.86v-14.31h-2.55v-1.82h7.96v1.82h-2.56v14.31h6.86v-14.31h-2.55V133.3L286.34,133.3z
		 M312.3,142.75h-12.25v0.13c0,2.46,0.42,4.32,1.25,5.57c0.83,1.25,2.06,1.88,3.69,1.88c1.25,0,2.27-0.36,3.07-1.09
		c0.8-0.73,1.36-1.8,1.68-3.23h2.28c-0.46,2-1.29,3.5-2.51,4.51c-1.22,1.01-2.82,1.51-4.81,1.51c-2.4,0-4.33-0.88-5.78-2.64
		c-1.45-1.76-2.18-4.09-2.18-6.99c0-2.88,0.71-5.2,2.14-6.96c1.43-1.76,3.3-2.64,5.63-2.64c2.48,0,4.39,0.85,5.71,2.55
		C311.55,137.05,312.24,139.51,312.3,142.75L312.3,142.75z M308.95,140.93c-0.06-2.13-0.47-3.73-1.22-4.81
		c-0.74-1.08-1.82-1.62-3.22-1.62c-1.31,0-2.33,0.54-3.08,1.63c-0.75,1.09-1.21,2.69-1.38,4.8H308.95L308.95,140.93z M330.12,146.06
		c-0.4,1.94-1.17,3.43-2.31,4.44c-1.14,1.02-2.62,1.53-4.44,1.53c-2.38,0-4.29-0.88-5.74-2.64c-1.45-1.76-2.18-4.09-2.18-6.99
		c0-2.92,0.73-5.25,2.18-6.99c1.45-1.74,3.37-2.62,5.74-2.62c1.04,0,2.08,0.13,3.1,0.4c1.03,0.27,2.07,0.67,3.11,1.22v4.67h-1.65
		c-0.22-1.6-0.69-2.77-1.41-3.5c-0.73-0.73-1.77-1.1-3.12-1.1c-1.53,0-2.69,0.66-3.47,1.98c-0.78,1.32-1.18,3.3-1.18,5.93
		c0,2.64,0.39,4.61,1.17,5.94c0.78,1.33,1.94,1.99,3.48,1.99c1.22,0,2.2-0.36,2.93-1.07c0.73-0.71,1.23-1.77,1.49-3.21H330.12
		L330.12,146.06z M347.85,133.3v4.95h-1.63v-2.85h-4.46v14.31h2.56v1.82h-7.96v-1.82h2.56v-14.31h-4.46v2.85h-1.61v-4.95H347.85
		L347.85,133.3z M359.26,133.3c3.58,0,5.37,1.51,5.37,4.51c0,1.08-0.32,1.94-0.94,2.58c-0.63,0.65-1.55,1.04-2.75,1.19
		c3.05,0.4,4.57,1.96,4.57,4.67c0,1.8-0.55,3.14-1.65,3.99c-1.1,0.86-2.82,1.29-5.17,1.29h-8.53v-1.82h2.58v-14.6h-2.58v-1.82
		H359.26L359.26,133.3z M355.59,140.52h2.61c1.09,0,1.93-0.25,2.52-0.76c0.6-0.51,0.89-1.15,0.89-1.93c0-0.78-0.3-1.42-0.9-1.94
		c-0.6-0.52-1.44-0.77-2.52-0.77h-2.61V140.52L355.59,140.52z M355.59,149.71h3.14c1.2,0,2.13-0.32,2.79-0.96
		c0.66-0.64,0.99-1.48,0.99-2.52c0-1.04-0.33-1.88-0.98-2.51c-0.66-0.63-1.59-0.94-2.8-0.94h-3.14V149.71L355.59,149.71z
		 M376.33,150.34c1.53,0,2.69-0.67,3.47-2.01c0.78-1.34,1.17-3.31,1.17-5.92c0-2.61-0.39-4.57-1.17-5.91c-0.78-1.33-1.93-2-3.47-2
		c-1.52,0-2.67,0.67-3.45,2c-0.78,1.34-1.17,3.3-1.17,5.91c0,2.61,0.39,4.58,1.18,5.92C373.67,149.67,374.82,150.34,376.33,150.34
		L376.33,150.34z M376.33,152.03c-2.38,0-4.29-0.88-5.74-2.64c-1.45-1.76-2.18-4.09-2.18-6.99c0-2.9,0.72-5.23,2.17-6.98
		c1.45-1.75,3.37-2.62,5.76-2.62c2.4,0,4.33,0.87,5.77,2.62c1.45,1.75,2.17,4.08,2.17,6.98c0,2.9-0.73,5.23-2.17,6.99
		C380.66,151.16,378.73,152.03,376.33,152.03L376.33,152.03z"/>
	<path class="st2" d="M9.92,100.79c4.91-2.49,10.62-3.73,17.11-3.73c11.88,0,17.81,4.72,17.81,14.19c0,5.31-1.49,8.69-4.48,10.17
		c-3,1.48-4.86,2.25-5.57,2.32c4.16,0.67,7.3,1.94,9.39,3.85c2.1,1.89,3.16,5.38,3.16,10.44c0,5.03-1.91,8.86-5.75,11.49
		c-3.82,2.63-8.59,3.95-14.28,3.95c-5.22,0-9.52-1.41-12.92-4.21c-3.39-2.8-5.47-6.22-6.23-10.29h6.26
		c1.88,6.34,6.26,9.52,13.11,9.52c3.48,0,6.37-1.06,8.65-3.19c2.3-2.13,3.43-4.69,3.43-7.68c0-3.02-1.24-5.62-3.71-7.78
		c-2.47-2.16-6.16-3.25-11.06-3.25h-3.9v-5.32h2.02c4.96,0,8.6-0.86,10.96-2.56c2.34-1.72,3.53-3.92,3.53-6.6
		c0-3.06-1.01-5.45-3.02-7.15c-2.01-1.72-4.72-2.58-8.14-2.58c-7.27,0-11.22,2.87-11.84,8.61H9.92V100.79L9.92,100.79z M80.86,135.2
		v-11.32H70.8c-3.85,0-6.72,1-8.62,2.97c-1.89,1.98-2.84,5.02-2.84,9.1c0,3.73,0.96,6.68,2.89,8.86c1.93,2.18,4.53,3.26,7.78,3.26
		c3.26,0,5.87-1.19,7.86-3.57C79.87,142.14,80.86,139.03,80.86,135.2L80.86,135.2z M88.63,118.6v28.07h6.95v5.34H80.86v-5.79
		c-1.72,2.49-3.71,4.31-5.97,5.48c-2.25,1.19-4.89,1.77-7.94,1.77c-4.98,0-8.94-1.58-11.88-4.72c-2.92-3.16-4.38-7.42-4.38-12.8
		c0-5.53,1.67-9.82,5.02-12.88c3.35-3.04,8.09-4.57,14.2-4.57h10.95v-3.68c0-4.05-1.04-7.2-3.11-9.43
		c-2.09-2.23-4.99-3.35-8.73-3.35c-3.13,0-5.6,0.84-7.43,2.51c-1.81,1.68-2.95,4.16-3.43,7.45h-4v-10.82
		c2.7-1.37,5.33-2.4,7.88-3.09c2.55-0.69,5.04-1.03,7.45-1.03c6.24,0,10.99,1.84,14.25,5.51C86.99,106.24,88.63,111.58,88.63,118.6
		L88.63,118.6z"/>
</g>
</svg>
