<?xml version="1.0" encoding="utf-8"?>
<!-- Generator: Adobe Illustrator 24.3.0, SVG Export Plug-In . SVG Version: 6.00 Build 0)  -->
<svg version="1.1" id="Слой_1" xmlns="http://www.w3.org/2000/svg" xmlns:xlink="http://www.w3.org/1999/xlink" x="0px" y="0px"
	 viewBox="0 0 641 200" style="enable-background:new 0 0 641 200;" xml:space="preserve">
<style type="text/css">
	.st0{fill:#2B67AF;}
	.st1{fill:#2457A3;}
	.st2{fill:#245CA7;}
	.st3{fill:#2862AB;}
	.st4{fill:#184393;}
	.st5{fill:#1E90CF;}
	.st6{fill:#1C91D0;}
	.st7{fill:#4583C4;}
	.st8{fill:#3E7DBF;}
	.st9{fill:#2760AA;}
	.st10{fill:#3270B6;}
	.st11{fill:#2455A2;}
	.st12{fill:#245AA6;}
	.st13{fill:#1B4696;}
	.st14{fill:#2965AE;}
	.st15{fill:#1F4D9B;}
	.st16{fill:#3675BA;}
	.st17{fill:#22509E;}
	.st18{fill:#1E4999;}
	.st19{fill:#2E69B1;}
	.st20{fill:#3674B9;}
	.st21{fill:#3B7ABD;}
	.st22{fill:#407FC0;}
	.st23{fill:#1F4B9A;}
	.st24{fill:#1C4696;}
	.st25{fill:#3D77BB;}
	.st26{fill:#86C7EA;}
	.st27{fill:#92CBEC;}
	.st28{fill:#74C5E9;}
	.st29{fill:#A2CEED;}
	.st30{fill:#AAD2EF;}
	.st31{fill:#FFFFFF;}
	.st32{fill:#1DB2E0;}
	.st33{fill:#1D4696;}
	.st34{fill:#27B7E3;}
	.st35{fill:#057CBF;}
	.st36{fill:#1E4796;}
	.st37{fill:#33B9E4;}
	.st38{fill:#508BC9;}
	.st39{fill:#4A88C7;}
	.st40{fill:#4683C3;}
	.st41{fill:#7DABDC;}
	.st42{fill:#3575BA;}
	.st43{fill:#2D69B0;}
	.st44{fill:#22519F;}
	.st45{fill:#B9D8F1;}
	.st46{fill:#BFDAF2;}
	.st47{fill:#C4DEF3;}
	.st48{fill:#61C1E8;}
	.st49{fill:#4DBCE5;}
	.st50{fill:#B2D5F0;}
	.st51{fill:#92C4E9;}
	.st52{fill:#81C0E7;}
	.st53{fill:#97C9EB;}
	.st54{fill:#72C1E8;}
	.st55{fill:#9ECAEB;}
	.st56{fill:#A8CCEC;}
	.st57{fill:#ADD0EE;}
	.st58{fill:#D6E9F8;}
	.st59{fill:#DAEBF9;}
	.st60{fill:#D4E8F8;}
	.st61{fill:#C9E1F5;}
	.st62{fill:#CEE4F6;}
	.st63{fill:#C1DBF2;}
	.st64{fill:#99BFE6;}
	.st65{fill:#9AC1E7;}
	.st66{fill:#BAD6EF;}
	.st67{fill:#B4D2EE;}
	.st68{fill:#ABCCEC;}
	.st69{fill:#204C9B;}
	.st70{fill:#A6C9EA;}
	.st71{fill:#88B6E1;}
	.st72{fill:#A4C8EA;}
	.st73{fill:#5C99D2;}
	.st74{fill:#80AFDE;}
	.st75{fill:#9FC3E8;}
	.st76{fill:#2355A1;}
	.st77{fill:#90BAE3;}
	.st78{fill:#71A6D9;}
	.st79{fill:#8BB6E2;}
	.st80{fill:#255AA5;}
	.st81{fill:#ADCDED;}
	.st82{fill:#2761AA;}
	.st83{fill:#B9D5EF;}
	.st84{fill:#B3D1EE;}
	.st85{fill:#91BAE4;}
	.st86{fill:#68A0D5;}
	.st87{fill:#84B1DF;}
	.st88{fill:#1EADDF;}
	.st89{fill:#37B4E2;}
	.st90{fill:#46BBE5;}
	.st91{fill:#248ECC;}
	.st92{fill:#1C86C7;}
	.st93{fill:#197DC0;}
	.st94{fill:#CDE2F5;}
	.st95{fill:#5692CD;}
	.st96{fill:#B5D5EF;}
	.st97{fill:#BAD6F0;}
	.st98{fill:#C6DEF3;}
	.st99{fill:#5FBDE6;}
	.st100{fill:#9CC5E9;}
	.st101{fill:#8DBFE6;}
	.st102{fill:#81B9E3;}
	.st103{fill:#77BDE6;}
	.st104{fill:#68BAE5;}
	.st105{fill:#A0C8EA;}
	.st106{fill:#D0E5F7;}
	.st107{fill:#CFE4F6;}
	.st108{fill:#CBE2F5;}
	.st109{fill:#5F97D0;}
	.st110{fill:#C6DEF4;}
	.st111{fill:#92BEE5;}
	.st112{fill:#79AEDD;}
	.st113{fill:#7FB3E0;}
	.st114{fill:#488FCC;}
	.st115{fill:#5299D3;}
	.st116{fill:#67A0D5;}
	.st117{fill:#619FD5;}
	.st118{fill:#3487C8;}
	.st119{fill:#72A8DA;}
	.st120{fill:#1BA8DC;}
	.st121{fill:#3CAEDE;}
	.st122{fill:#52B2E0;}
	.st123{fill:#4CB7E3;}
	.st124{fill:#189DD6;}
	.st125{fill:#18A3D9;}
	.st126{fill:#1B96D1;}
	.st127{fill:#4193D0;}
	.st128{fill:#3998D3;}
	.st129{fill:#6DB6E2;}
	.st130{fill:#6CADDD;}
	.st131{fill:#4B9ED5;}
	.st132{fill:#61A6D9;}
	.st133{fill:#40AADC;}
	.st134{fill:#3BA4DA;}
	.st135{fill:#62B0DF;}
	.st136{fill:#399FD6;}
	.st137{fill:#58A9DB;}
	.st138{fill:#4FA3D8;}
</style>
<g>
	<path class="st0" d="M134.37,56.5c-0.85,0.7-2,0.48-2.94,0.9c-0.38,1.14,0.53,0.98,1.15,1.05c2.51,0.26,4.97,0.7,7.27,1.75
		c1.49,0.15,2.97,0.34,4.43-0.15c0.78-0.86-0.06-1.22-0.6-1.49c-1.51-0.76-2.9-1.89-4.78-1.67c-0.42,0.05-0.81-0.13-1.15-0.39
		C136.63,56.5,135.5,56.5,134.37,56.5z"/>
	<path class="st1" d="M151.3,57.72c-1.3-0.81-3.01-0.24-4.25-1.22c-0.14,0-0.28,0-0.42,0c-0.55,1.34,0.62,1.84,1.41,2.25
		c1.2,0.62,2.09,1.5,2.96,2.45c0.32,0.27,0.67,0.47,1.07,0.6c1,0.2,1.94,0.63,2.96,0.78c0.31,0.02,0.6-0.04,0.86-0.22
		c-0.08-2.09-2.04-2.65-3.28-3.8C152.22,58.22,151.47,58.38,151.3,57.72z"/>
	<path class="st2" d="M151.27,60.97c-0.73-1.15-1.55-2.11-2.99-2.6c-0.69-0.23-1.64-0.81-1.66-1.87c-1.41,0-2.82,0-4.22,0
		c-0.18,0.66,0.29,1.13,0.74,1.27c2.07,0.65,3.5,2.34,5.48,3.1c0.49,0.18,0.98,0.34,1.5,0.45
		C150.55,61.38,150.97,61.35,151.27,60.97z"/>
	<path class="st3" d="M148.74,60.52c-2.11-1.34-4.23-2.68-6.34-4.02c-1.55,0-3.1,0-4.65,0c1.73,1.16,3.95,1.21,5.67,2.42
		c0.38,0.27,0.86,0.39,1.09,0.83c0.19,0.39,0.55,0.58,0.94,0.74c0.29,0.11,0.6,0.17,0.91,0.22
		C147.16,60.7,148.01,61.34,148.74,60.52z"/>
	<path class="st4" d="M98.05,123.73c4.15,8.55,10.66,14.99,19.03,19.65c29.01,16.15,65.49-0.8,71.04-32.97
		c3.35-19.42-6.57-39.06-24.43-48.36c-0.31-0.16-0.64-0.27-0.96-0.4c-0.9,1.07-0.24,1.97,0.52,2.6c1.16,0.95,1.88,2.1,2.4,3.43
		c1.92,1.95,3.82,3.92,5.68,5.93c2.46,2.68,3.96,5.85,4.95,9.27c0.34,1.28,0.53,2.59,0.8,3.88c0.44,5.9-1.21,11.25-4.58,16.13
		c-1.41,2.04-3.29,3.69-4.87,5.58c-0.22,0.51-0.08,1.07-0.24,1.59c-0.09,0.59-0.29,1.14-0.7,1.6c-0.12,0.14-0.22,0.29-0.32,0.44
		c-1.18,1.2-1.43,2.9-2.54,4.19c-4.07,4.7-8.77,8.68-14,12.09c-0.61,0.4-1.23,0.54-1.95,0.62c-0.9,0.1-1.83,0.33-2,1.46
		c0.26,1.57,1.52,1.81,2.81,1.95c2.67,0.29,4.87-0.97,7.19-2.24c-3.9,4.41-11.6,6.04-17.12,3.7c-0.89-0.38-1.72-0.97-2.77-0.92
		c-4.22,0.62-8.42,0.98-12.73,0.53c-7.74-0.81-14.74-3.28-21.02-7.71c-1.07-0.76-1.96-1.77-3.18-2.33
		C98.69,123.28,98.14,122.86,98.05,123.73z"/>
	<path class="st5" d="M476.12,109.8c0,5.67,0.04,11.34-0.03,17.01c-0.02,1.51,0.28,2.17,2.05,2.16c5.49-0.03,5.49,0.05,5.49-5.36
		c0-2.39,0.05-4.78-0.02-7.17c-0.03-1.16,0.21-1.73,1.6-1.7c4.43,0.08,8.87,0.08,13.3,0c1.3-0.02,1.88,0.72,2.53,1.52
		c3.08,3.81,6.19,7.6,9.22,11.46c0.72,0.93,1.48,1.29,2.65,1.23c1.76-0.08,3.52,0,5.28-0.03c0.54-0.01,1.28,0.28,1.57-0.24
		c0.35-0.64-0.39-1.08-0.74-1.54c-2.97-3.89-5.97-7.77-8.98-11.64c-0.59-0.76-0.95-1.17,0.37-1.74c6.34-2.72,8.79-7.48,7.42-14.08
		c-1.14-5.49-5.9-9.01-12.61-9.1c-6.54-0.1-13.09-0.02-19.63-0.02c-2.6,0-5.21,0.06-7.81-0.03c-1.31-0.04-1.68,0.4-1.67,1.64
		C476.15,98.06,476.12,103.93,476.12,109.8z"/>
	<path class="st6" d="M595.32,109.79c0,5.74,0.05,11.48-0.03,17.21c-0.02,1.55,0.5,1.97,2.05,1.96c11.68-0.05,23.36-0.05,35.05-0.01
		c1.4,0,1.98-0.31,2-1.81c0.06-5.42,0.11-5.42-5.41-5.42c-8.02,0-16.05-0.04-24.07,0.03c-1.57,0.01-2.29-0.27-2.15-1.99
		c0.16-1.97,0.12-3.96,0.01-5.94c-0.07-1.28,0.37-1.62,1.66-1.61c5.77,0.06,11.54-0.04,17.31,0.07c1.73,0.03,2.1-0.51,2.08-2.08
		c-0.06-4.99,0-4.99-5.18-4.99c-4.57,0-9.15-0.05-13.72,0.03c-1.55,0.03-2.38-0.23-2.15-1.98c0.23-1.74-0.74-4.02,0.4-5.13
		c1.14-1.11,3.47-0.34,5.28-0.35c7.46-0.04,14.92-0.05,22.38,0.01c1.51,0.01,2.07-0.31,2.06-1.91c-0.04-5.33,0.03-5.33-5.45-5.33
		c-9.99,0-19.99,0.03-29.98-0.03c-1.63-0.01-2.2,0.38-2.17,2.04C595.38,98.32,595.32,104.05,595.32,109.79z"/>
	<path class="st6" d="M556.24,122.62c-6.06,0.07-11.7-1.34-16.77-4.59c-1.15-0.74-1.85-0.64-2.47,0.51
		c-0.19,0.36-0.46,0.69-0.7,1.02c-2.63,3.71-2.65,3.74,1.52,5.98c6.83,3.66,14.26,4.34,21.87,3.94c4.7-0.24,9.22-1.13,13.03-4.05
		c3.59-2.76,4.76-6.5,4.13-10.77c-0.61-4.17-3.32-6.56-7.35-7.83c-5.3-1.67-10.81-1.56-16.26-1.89c-2.25-0.14-4.49-0.33-6.66-0.89
		c-1.54-0.4-2.95-1.02-3.03-2.91c-0.08-1.84,1.16-2.7,2.67-3.26c4.12-1.52,8.41-1.38,12.69-1c3.75,0.33,7.29,1.4,10.61,3.12
		c0.42,0.22,0.97,0.67,1.34,0.23c1.35-1.56,2.68-3.16,3.84-4.85c0.4-0.58-0.56-0.81-0.97-1.07c-4.67-2.93-9.92-4.14-15.36-4.51
		c-5-0.35-9.98-0.13-14.76,1.61c-6.27,2.29-9.31,7.35-7.8,12.97c0.83,3.07,3.02,4.82,5.97,5.83c5.26,1.8,10.78,1.66,16.24,2
		c2.39,0.15,4.77,0.33,7.09,0.89c1.91,0.46,3.72,1.18,3.88,3.45c0.15,2.19-1.16,3.52-3.07,4.45
		C562.84,122.46,559.55,122.59,556.24,122.62z"/>
	<path class="st5" d="M420.37,109.7c0,5.8,0.04,11.61-0.03,17.41c-0.02,1.45,0.48,1.86,1.93,1.85c11.75-0.04,23.5-0.05,35.25,0
		c1.43,0.01,1.75-0.47,1.76-1.78c0.05-5.46,0.09-5.46-5.52-5.46c-7.88,0-15.76-0.07-23.64,0.05c-1.94,0.03-2.42-0.55-2.27-2.3
		c0.15-1.83,0.12-3.69,0.01-5.53c-0.08-1.34,0.38-1.74,1.77-1.72c5.7,0.07,11.4-0.03,17.09,0.06c1.56,0.02,2.02-0.37,2.01-1.92
		c-0.05-5.14,0.02-5.14-5.22-5.14c-4.57,0-9.15-0.05-13.72,0.03c-1.42,0.02-2.08-0.29-1.94-1.79c0.12-1.29,0.12-2.6,0-3.89
		c-0.13-1.47,0.47-1.83,1.91-1.82c8.65,0.06,17.31-0.02,25.96,0.07c1.75,0.02,2.26-0.44,2.23-2.14c-0.09-5.11-0.02-5.11-5.24-5.11
		c-10.13,0-20.26,0.03-30.39-0.04c-1.6-0.01-2.02,0.43-2,1.96C420.42,98.22,420.37,103.96,420.37,109.7z"/>
	<path class="st6" d="M310.87,119.08c-2.11-2.14-3.86-3.87-5.56-5.64c-6.52-6.79-13.1-13.53-19.5-20.42
		c-1.71-1.84-3.42-2.64-5.98-2.5c-3.83,0.22-3.84,0.06-3.84,3.69c0,10.86,0.04,21.72-0.04,32.58c-0.01,1.69,0.47,2.22,2.24,2.2
		c5.26-0.07,5.26,0,5.26-5.09c0-6.97,0-13.93,0-20.9c0-0.66,0-1.31,0-2.53c3.63,3.74,6.89,7.07,10.12,10.44
		c4.99,5.19,10.01,10.34,14.89,15.63c1.63,1.76,3.28,2.62,5.8,2.48c3.87-0.23,3.88-0.06,3.88-3.81c0-10.86-0.03-21.72,0.03-32.58
		c0.01-1.56-0.36-2.11-2.08-2.08c-5.26,0.07-5.26,0-5.26,5.11c0,6.97,0,13.93,0,20.9C310.87,117.19,310.87,117.84,310.87,119.08z"/>
	<path class="st6" d="M213.49,104.05c0,3.62,0.02,7.24,0,10.86c-0.03,5.04,2.19,8.98,6.76,11.21c9.37,4.57,18.96,4.64,28.37,0.11
		c4.66-2.24,6.96-6.18,6.94-11.31c-0.02-7.51-0.04-15.03,0.03-22.54c0.01-1.43-0.41-1.85-1.89-1.85c-5.66,0-5.65-0.06-5.65,5.34
		c0,5.67-0.14,11.34,0.04,17c0.14,4.46-0.55,7.44-7.35,8.93c-4.46,0.98-8.95,0.85-13.37-0.19c-4.6-1.08-6.4-3.45-6.4-8.04
		c0-7.03-0.05-14.07,0.04-21.1c0.02-1.55-0.43-1.95-2-1.93c-5.51,0.05-5.51-0.01-5.51,5.33
		C213.49,98.59,213.49,101.32,213.49,104.05z"/>
	<path class="st6" d="M383.32,119.47c-2.15-4.09-4.31-8.2-6.47-12.32c-2.64-5.05-5.31-10.08-7.9-15.15
		c-0.54-1.05-1.15-1.52-2.4-1.46c-2.1,0.1-4.22,0.03-6.45,0.03c0.09,1.43,0.97,2.44,1.55,3.55c5.77,11.07,11.59,22.13,17.34,33.21
		c0.62,1.2,1.38,1.49,2.72,1.68c4.17,0.6,6.26-1,8.07-4.73c5.2-10.73,10.94-21.22,16.52-31.78c0.82-1.55,0.64-1.74-1.22-2.02
		c-4.8-0.73-7.19,1.16-9.13,5.4c-3.5,7.66-7.72,15-11.65,22.47C384.1,118.74,384.03,119.29,383.32,119.47z"/>
	<path class="st5" d="M48.97,90.57c-6.26,0-12.52,0.04-18.78-0.03c-1.44-0.02-1.93,0.33-1.93,1.81c-0.01,5.43-0.07,5.43,5.57,5.43
		c3.17,0,6.33,0.08,9.5-0.03c1.58-0.06,2.02,0.41,2.01,1.95c-0.07,8.94,0.01,17.89-0.07,26.83c-0.02,1.79,0.34,2.51,2.4,2.46
		c5.15-0.13,5.16-0.03,5.16-5.07c0-7.78-0.01-15.57,0.01-23.35c0.01-3.16-0.39-2.76,2.97-2.78c4.08-0.02,8.16-0.05,12.24,0.02
		c1.34,0.02,1.81-0.32,1.82-1.72c0.05-5.52,0.1-5.52-5.47-5.52C59.25,90.57,54.11,90.57,48.97,90.57z"/>
	<path class="st6" d="M339.23,109.81c0,5.8,0.04,11.59-0.03,17.39c-0.01,1.3,0.3,1.76,1.73,1.77c5.77,0.06,5.77,0.11,5.77-5.48
		c0-10.23-0.04-20.46,0.04-30.68c0.02-1.81-0.49-2.32-2.36-2.28c-5.15,0.11-5.16,0.03-5.16,4.97
		C339.23,100.26,339.23,105.04,339.23,109.81z"/>
	<path class="st6" d="M6.52,109.77c0,5.73,0.04,11.45-0.03,17.18c-0.02,1.48,0.36,2.02,1.99,2.02c5.51,0,5.51,0.06,5.51-5.24
		c0-10.36-0.03-20.73,0.03-31.09c0.01-1.48-0.21-2.15-2.01-2.12c-5.49,0.08-5.49,0-5.49,5.34C6.52,100.5,6.52,105.13,6.52,109.77z"
		/>
	<path class="st7" d="M112.43,65.58c-3.96,2.69-7.34,5.94-10.09,9.8c-1.08,2.64-2.67,5.05-3.31,7.89
		c-1.2,5.35-1.25,10.52,0.55,15.88c1.65,4.93,4.31,9,8.06,12.49c6.68,6.22,14.86,8.21,23.87,7.63c0.77-0.05,1.53-0.24,2.12-0.8
		c0.17-0.32,0.16-0.64-0.01-0.96c-0.84-0.71-1.88-0.81-2.93-0.87c-11.62,0.5-20.69-3.97-26.5-13.72c-3.81-6.4-4.22-13.45-1.91-20.57
		c0.47-1.43,0.93-2.86,1.57-4.23c1.39-4.49,4.81-7.32,8.61-9.82c0.93-0.61,2-1.03,2.29-2.23c-0.01-0.31-0.14-0.56-0.41-0.72
		C113.63,64.91,113.1,65.79,112.43,65.58z"/>
	<path class="st8" d="M133.46,118.41c-9.11,1.39-17.49-0.4-24.48-6.29c-3.98-3.35-7.23-7.34-8.65-12.66
		c-0.72-2.69-1.76-5.37-1.75-8.09c0.03-4.29,0.57-8.59,2.68-12.55c0.55-1.02,1.74-2,1.08-3.44c-1.92,2.24-3.45,4.7-4.62,7.39
		c-0.34,2.26-1.33,4.34-1.47,6.7c-0.28,4.55,0.54,8.87,2.4,12.93c3.01,6.57,7.79,11.73,14.33,15.26c6.09,3.19,12.53,4.43,19.4,3.32
		c0.49-0.08,0.97-0.16,1.33-0.53C134.07,119.72,134.15,119.02,133.46,118.41z"/>
	<path class="st9" d="M93.05,100.38c-0.01,1.09-0.02,2.18-0.03,3.27c0.81,4.46,3.31,7.98,6.53,11.12c2.53,2.47,4.92,5.1,7.98,6.94
		c7.06,4.24,14.77,6.16,23.07,5.77c1.16-0.06,2.44-0.08,3.16-1.27c0.16-0.42,0.16-0.83-0.07-1.22c-0.52-0.52-1.14-0.32-1.77-0.27
		c-13.45,1-24.38-3.49-32.62-13.98c-2.15-2.73-3.51-5.85-5.03-8.9C93.99,101.27,93.99,100.44,93.05,100.38z"/>
	<path class="st10" d="M95.12,89.3c-0.72,1.57-1.12,3.21-1.26,4.92c0.91,5.26,2.48,10.32,5.54,14.77c1.45,2.1,3.12,4.14,5.08,5.86
		c0.98,0.86,2,1.69,2.93,2.61c0.68,0.36,1.42,0.61,2.03,1.07c3.59,2.71,7.86,4,12.18,4.66c3.94,0.6,8.03,1.3,12.06,0.09
		c0.41-0.65,0.41-1.3,0.01-1.95c-1.4-0.59-2.72,0.22-4.1,0.23c-6.3,0.07-12.23-1.16-17.6-4.47c-0.34-0.24-0.76-0.34-1.12-0.56
		c-0.86-0.29-1.59-0.75-2.17-1.44c-3.59-2.53-6.23-5.9-8.67-9.41c-1.51-2.18-1.86-4.84-2.86-7.24c-1.05-2.53-0.99-5.17-1.2-7.79
		C95.92,90.06,96.07,89.36,95.12,89.3z"/>
	<path class="st11" d="M93.38,108.56c-0.07,1.6,0.23,3.14,0.79,4.64c2.24,3.02,4.86,5.76,7.88,7.99c5.27,3.89,10.97,7.02,17.66,8.1
		c1.37,0.22,2.67,0.86,4.11,0.65c1.38-0.22,2.77-0.75,4.13,0.12c0.2,0.08,0.41,0.11,0.62,0.12c1.79-0.31,3.65-0.05,5.41-0.64
		c0.21-0.27,0.25-0.57,0.16-0.9c-0.54-1.06-1.53-1.09-2.53-1c-5.83,0.53-11.5-0.45-16.95-2.21c-4.46-1.43-8.34-4.11-11.92-7.1
		c-3.09-2.58-5.72-5.54-7.95-8.85C94.47,109.01,94.22,108.34,93.38,108.56z"/>
	<path class="st12" d="M93.38,108.56c1.05,1.86,3.04,3.06,3.68,5.24c0.34,1.15,1.78,1.45,2.58,2.32c4.03,4.36,8.96,7.76,14.51,9.7
		c5.56,1.94,11.51,3.11,17.59,2.25c0.8-0.11,1.52-0.04,2.09,0.59c0.74-0.95,0.32-1.72-0.38-2.46c-2.68,1.5-5.62,0.88-8.4,0.66
		c-2.69-0.21-5.44-0.52-8.01-1.49c-4.33-1.63-8.79-3-12.22-6.3c-1.97-1.9-4.34-3.48-6-5.59c-2.2-2.79-4.65-5.57-5.26-9.26
		c-0.03-0.21-0.36-0.37-0.55-0.56C92.94,105.3,92.79,106.96,93.38,108.56z"/>
	<path class="st13" d="M98.05,123.73c2.14-0.03,2.89,1.96,4.37,2.9c5.61,3.57,11.51,6.27,18.27,6.97c2.56,0.26,5.09,0.87,7.69,0.78
		c2.06-0.07,4.08-0.62,6.17-0.45c0.62,0.05,1.21-0.3,1.57-0.88c0.02-0.51-0.25-0.83-0.71-1.03c-3.21-0.31-6.39,0.41-9.62,0.22
		c-5.56-0.34-10.81-1.58-15.93-3.82c-4.03-1.77-7.34-4.37-10.79-6.9c-0.57-0.42-1.2-1.89-2.37-0.61
		C96.94,121.93,97.36,122.89,98.05,123.73z"/>
	<path class="st14" d="M93.05,100.38c1.71,3.59,3.29,7.22,5.7,10.49c3.6,4.89,8.18,8.59,13.69,11.14
		c6.65,3.07,13.67,4.22,21.01,2.96c0.29-0.24,0.3-0.53,0.16-0.85c-0.97-0.56-2.07-0.5-3.06-0.34c-4.91,0.8-9.62-0.49-14.18-1.71
		c-3.34-0.89-6.61-2.55-9.28-4.94c-3.71-2.36-6.35-5.74-8.65-9.28c-1.85-2.84-3.53-5.87-3.97-9.34c-0.08-0.62,0.01-1.46-1.06-1.42
		C92.88,98.14,92.91,99.26,93.05,100.38z"/>
	<path class="st15" d="M95.03,116.37c0.09,0.9,0.34,1.75,0.86,2.51c2.92,2.43,5.74,4.97,8.99,7c4.9,3.06,10.23,4.95,15.97,5.89
		c4.3,0.7,8.6,0.37,12.91,0.32c0.69-0.01,1.01-0.37,1.18-0.94c0-0.64-0.39-0.99-0.95-1.21c-1.44-0.35-2.86-0.01-4.29,0.07
		c-1.91,0.8-3.9,0.26-5.77,0.06c-10.42-1.1-19.34-5.22-26.31-12.97C96.89,116.28,96.24,115.47,95.03,116.37z"/>
	<path class="st16" d="M95.12,89.3c0.7,0.63,0.7,1.67,0.59,2.27c-0.86,4.73,1.38,8.85,3.14,12.82c2,4.51,5.41,8.32,9.76,11.13
		c0.64,0.52,1.42,0.8,2.11,1.23c0.18,0.33,0.5,0.4,0.84,0.41c0.42,0.27,0.85,0.32,1.27,0c-4.5-3-8.6-6.36-11.52-10.96
		c-2.9-4.56-4.48-9.49-4.64-14.78c-0.07-2.33,0.22-4.73,1.08-6.97c0.23-0.61,0.47-1.13-0.03-1.69C96.46,84.8,95.67,87.01,95.12,89.3
		z"/>
	<path class="st17" d="M95.03,116.37c1.08-0.15,1.75,0.23,2.43,1.15c3.04,4.04,7.22,6.73,11.76,8.95c4.4,2.15,9.04,3.54,13.95,4.12
		c1.87,0.22,3.79-0.14,5.64,0.44c0.38,0.12,0.72-0.35,0.91-0.74c-0.3-0.49-0.9-0.11-1.27-0.41l-0.21,0l-0.21,0
		c-1.32-0.95-2.85,0.02-4.22-0.41c-3.01-0.08-5.77-1.2-8.64-1.91c-5.21-1.28-9.44-4.29-13.51-7.37c-2.56-1.93-5.13-4.16-6.75-7.07
		c-0.34-0.61-0.58-0.78-0.73,0.08C94.22,114.32,94.52,115.37,95.03,116.37z"/>
	<path class="st18" d="M134.69,131.11c-1.08,1.13-2.68,0.92-3.79,0.71c-3.5-0.64-7.01,0.16-10.54-0.61
		c-4.97-1.08-9.72-2.49-14.08-5.04c-3.36-1.97-6.52-4.2-9.17-7.04c-0.3-0.32-0.66-0.8-1.21-0.26c0.05,0.75,0.32,1.42,0.8,2.01
		c1.18-0.29,1.74,0.68,2.39,1.24c2.29,1.96,4.64,3.9,7.36,5.21c3.27,1.57,6.55,3.06,10.18,4.01c4.57,1.19,9.07,1.37,13.67,1.4
		c1.75,0.01,3.44-0.67,5.21-0.41C135.93,131.5,135.35,131.28,134.69,131.11z"/>
	<path class="st19" d="M93.4,97.09c0.56,1.89,1.13,3.78,1.69,5.67c0.14,0.45,0.2,0.95,0.45,1.33c2.22,3.34,4.28,6.8,6.8,9.92
		c1.09,1.35,2.77,2.47,4.56,3.16c0.14,0.17,0.28,0.17,0.43,0c-0.01-0.43-0.13-0.88-0.51-1.07c-2.82-1.44-4.25-4.22-6.29-6.37
		c-1.75-1.85-2.67-4.49-3.78-6.86c-1.15-2.45-1.56-5.13-2.18-7.74c-0.11-0.46-0.34-0.71-0.73-0.91
		C93.48,95.15,93.29,96.09,93.4,97.09z"/>
	<path class="st20" d="M139.48,59.72c-2.15-1.54-4.76-1.39-7.21-1.75c-0.5-0.07-0.77-0.08-0.84-0.57c-2.18,0.29-4.27,0.91-6.32,1.66
		c0.09,1.21,1.21,1.21,1.88,1.1c2.44-0.39,4.76,0.18,7.12,0.56c0.69,0,1.37-0.02,2.04-0.16C137.21,60.1,138.56,60.71,139.48,59.72z"
		/>
	<path class="st21" d="M134.05,60.24c-0.95-0.09-1.94,0.07-2.75-0.68c-0.58-0.53-1.22-0.31-1.93-0.07
		c-1.46,0.49-2.92,0.46-4.26-0.43c-2.73,0.89-5.43,1.84-7.79,3.5c0.35,0.74,0.95,0.69,1.57,0.44c1.87-0.76,3.92-0.76,5.85-1.31
		c1.6-0.46,3.29-0.32,4.95-0.14c0.55,0,1.09-0.02,1.63-0.1c0.84-0.22,1.73-0.26,2.52-0.65C134.03,60.66,134.1,60.47,134.05,60.24z"
		/>
	<path class="st22" d="M129.84,61.07c-3.92-0.41-7.68,0.31-11.33,1.63c-0.48,0.17-0.8,0-1.18-0.12c-1.84,0.69-3.39,1.81-4.9,3.01
		c0.61,1.22,1.1-0.34,1.67-0.06c3.25-1.22,6.62-2.03,10.01-2.82c1.11-0.26,2.21-0.35,3.34-0.39
		C128.36,62.11,129.44,62.21,129.84,61.07z"/>
	<path class="st17" d="M151.3,57.72c-0.17,0.52-0.05,0.8,0.57,1.08c1.71,0.8,3.02,2.01,4.01,3.56c0.42,1.07,1.6,0.99,2.39,1.51
		c0.38,0.12,0.76,0.26,1.14-0.01c0.59-0.99,0.08-1.63-0.72-2.22c-1.04-0.78-2.18-1.47-2.74-2.71
		C154.48,58.25,152.94,57.8,151.3,57.72z"/>
	<path class="st23" d="M155.96,58.94c-0.79,1.49,0.88,1.61,1.42,2.34c0.61,0.84,2.21,0.95,1.92,2.47c0.04,0.72,0.67,0.92,1.17,1.24
		c0.92,0.26,1.58,1.22,2.7,0.96c-0.45-1.88-1.51-3.44-2.83-4.82c-0.31-0.32-0.8-0.52-1.03-0.95
		C158.32,59.43,157.1,59.29,155.96,58.94z"/>
	<path class="st24" d="M159.3,60.17c-0.09,0.3-0.41,0.78-0.05,0.9c2.36,0.76,2.12,3.46,3.81,4.69c0.04,0.03,0.01,0.13,0.02,0.19
		c-0.1,0.33,0.09,0.53,0.34,0.7c0.86,0.34,1.52,1.2,2.61,0.98c-0.38-1.4-0.81-2.72-2.3-3.51c-0.9-0.48-1.13-1.46-1.01-2.46
		C161.66,61,160.56,60.41,159.3,60.17z"/>
	<path class="st25" d="M139.48,59.72c-1.13,0.26-2.35-0.31-3.42,0.4c0.95,0.96,2.18,0.59,3.32,0.65c1.28-0.02,2.56,0.08,3.84-0.01
		c0.77-0.04,1.59,0.05,2.15-0.65c-0.28-0.12-0.57-0.24-0.85-0.36C142.84,59.74,141.16,59.73,139.48,59.72z"/>
	<path class="st26" d="M155.08,62.28c-0.94-0.45-1.89-0.85-2.97-0.86c0.03,1.21,1.14,1.62,1.89,2.19c2.06,1.55,3.08,3.7,4.02,5.93
		c0.19,0.32,0.38,0.64,0.58,0.95c0.31,0.45,0.58,0.91,0.76,1.43c0.07,0.17,0.16,0.33,0.26,0.49c0.68,0.75,0.85,1.88,1.89,2.35
		c0.94,0.04,1.06-0.49,0.84-1.2c-0.14-0.46-0.35-0.9-0.12-1.38c0.61-1.73-1.19-2.41-1.67-3.67
		C158.98,66.23,157.73,63.67,155.08,62.28z"/>
	<path class="st27" d="M158.45,69.62c-0.73-3.74-3.53-5.98-6.34-8.2c-0.28-0.15-0.56-0.29-0.84-0.44c-0.42,0-0.85-0.01-1.27-0.01
		c0.09,1.58,1.04,2.67,2.23,3.6c0.59,0.46,1.11,1,1.66,1.5c0.21,0.2,0.44,0.38,0.68,0.54c0.79,0.45,1.38,1.09,1.94,1.8
		C156.99,69.02,157.39,69.84,158.45,69.62z"/>
	<path class="st28" d="M155.08,62.28c1.85,2.05,3.73,4.08,5.06,6.52c0.75,0.23,1.22,1.15,2.19,0.82c0.29-0.47,0.16-0.95-0.14-1.32
		c-1.27-1.57-2.25-3.36-3.74-4.76c-0.86-0.39-1.72-0.79-2.58-1.18C155.61,62.33,155.34,62.31,155.08,62.28z"/>
	<path class="st29" d="M154.22,65.93c-1.39-1.67-3.27-2.95-4.22-4.96c-0.42-0.15-0.84-0.3-1.26-0.44c-0.84-0.08-1.68-0.16-2.52-0.24
		c0.4,1.53,1.19,2.73,2.52,3.75c1.68,1.3,3.25,2.73,3.77,4.98c0.25,1.09,1.23,1.97,2.07,2.8c0.36,0.2,0.75,0.23,1.14,0.12
		c0.8-0.39,0.88-0.98,0.39-1.64c-0.38-0.52-0.56-1.05-0.45-1.68c-0.01-0.18-0.08-0.35-0.18-0.51
		C154.86,67.51,154.11,66.96,154.22,65.93z"/>
	<path class="st30" d="M154.65,71.67c-1.8-3.34-3.25-6.87-6.75-9.09c-0.57-0.36-0.92-1.64-1.67-2.3c-0.28-0.06-0.56-0.11-0.85-0.17
		c-0.71,0.01-1.42,0.02-2.13,0.03c-0.6,1.03-0.28,1.94,0.69,2.43c2.43,1.21,3.92,3.48,6.12,4.93c1.64,1.83,2.61,4.06,3.85,6.13
		c0.34,0.56,0.52,1.27,1.34,1.41C156.59,73.66,155.24,72.73,154.65,71.67z"/>
	<path class="st31" d="M134.69,131.11c0.27,0.41,0.55,0.82,0.82,1.23c0.2,0.23,0.4,0.46,0.59,0.7c6.31,4.56,15.56,1.98,19.61-1.69
		c0.36-0.32,0.67-0.69,0.98-1.06c0.23-0.28,0.7-0.55,0.17-0.98c-0.43-0.35-0.73-0.17-1.07,0.15c-1.36,1.26-3.05,1.94-4.83,2.29
		c-1.77,0.34-3.66,0.62-4.81-1.34c-0.18-0.34,0.01-0.69-0.02-1.04c-0.02-0.18-0.05-0.35-0.1-0.53c-0.16-0.53-0.16-1.08-0.14-1.63
		c0.01-0.5,0.02-0.99,0.03-1.48c0-0.42,0.02-0.84,0.02-1.26c-0.02-0.55,0.03-1.1,0.01-1.64c-0.01-0.79,0.03-1.57,0-2.36
		c0.01-0.79,0.03-1.59,0-2.38c0-0.68,0.02-1.35-0.01-2.03c0-0.34,0-0.67,0-1.01c0-0.78,0.02-1.56,0-2.35c0.01-0.78,0.01-1.56,0-2.35
		c0.01-0.23,0.01-0.45,0-0.67c0.01-0.79,0.01-1.58,0-2.37c0.03-0.69,0.02-1.38,0.02-2.06c-0.04-1.05,0.04-2.09-0.01-3.14
		c0-0.47,0.05-0.94,0.01-1.41c-0.06-0.94,0.05-1.88,0.01-2.82c0.06-4.51-0.66-4.28,4.35-4.33c1.6-0.02,3.21,0.19,4.8-0.19
		c0.24-0.1,0.44-0.25,0.6-0.45c0.36-0.76,0.37-1.48-0.24-2.14c-1.11-0.61-2.33-0.32-3.5-0.41c-3.07,0.01-6.14,0-9.22-0.01
		c-5.62,0.01-11.23,0-16.85,0.01c-0.83,0-1.7-0.11-2.45,0.38c-0.65,0.66-0.65,1.4-0.27,2.19c0.77,0.77,1.79,0.63,2.75,0.65
		c1.53,0.04,3.07,0.07,4.6,0c1.67-0.08,2.52,0.54,2.36,2.22c0.12,1.07-0.05,2.15,0.03,3.22c-0.01,0.83-0.04,1.65,0.01,2.48
		c0,0.8-0.03,1.61,0.01,2.41c0,0.45-0.03,0.9,0,1.35c-0.01,0.66-0.01,1.32,0.01,1.98c0,0.54,0,1.08,0,1.62c0,0.32,0,0.64,0.01,0.95
		c0,0.63,0.01,1.25,0.01,1.88c-0.01,0.31,0,0.62,0.01,0.93c0,0.41,0.01,0.82,0.01,1.23c-0.01,0.31-0.01,0.62-0.01,0.93
		c-0.01,0.32-0.01,0.64-0.01,0.95c-0.01,0.66,0.05,1.31,0.5,1.86c-0.01,0.27-0.01,0.53-0.02,0.8c0,0.68,0,1.37,0,2.05
		c-0.18,0.28-0.22,0.55,0,0.83c0,0.68,0,1.35,0,2.03c-0.22,0.28-0.18,0.55,0,0.83c0,0.27,0,0.55,0,0.82c0,0.41,0,0.82,0,1.23
		c0.13,0.82,0.25,1.64,0.38,2.46c0.03,0.27,0.06,0.54,0.09,0.81c-0.24,0.29-0.22,0.56,0.07,0.8
		C134.46,130.38,134.65,130.69,134.69,131.11z"/>
	<path class="st32" d="M177.5,86.81c-0.07-1.43-0.24-2.83-0.85-4.16c-0.84-2.11-2.67-3.68-3.33-5.89c-0.08-0.26-0.17-0.53-0.36-0.74
		c-0.52-0.59-0.86-1.68-1.82-1.42c-0.99,0.27-0.77,1.36-0.7,2.14c0.07,0.76,0.25,1.47-0.39,2.08c0.12,1.33-0.8,2.78,0.48,3.98
		c0.84,0.23,1.65,0.38,2.19-0.64c1.38,2.38,2.57,4.79,2.97,7.52c0.08,0.57-0.01,1.53,1.17,1.18
		C177.62,89.61,177.66,88.22,177.5,86.81z"/>
	<path class="st33" d="M145.8,129.47c-0.06,0.37-0.09,0.74,0.35,0.94c0.19-0.48,0.53-0.61,1.07-0.75c3.44-0.91,6.07-3.07,8.81-5.21
		c1.85-1.44,3.38-3.16,5.17-4.63c1.92-1.56,3.8-3.36,4.48-5.9c0.21-0.79,1.26-1.14,1.21-2.08c-1.38-0.6-1.7,0.62-2.19,1.31
		c-3.22,4.59-7.17,8.48-11.79,11.76c-1.71,1.21-3.66,2-5.42,3.11C146.86,128.43,146.11,128.7,145.8,129.47z"/>
	<path class="st34" d="M170.27,78.64c0.5,0.11,1.48,0.89,0.97-0.53c-0.4-1.11-0.31-2.17-0.2-3.77c0.91,1.42,2.3,2.01,1.84,3.61
		c-0.05,0.18,0.18,0.53,0.37,0.65c1.52,0.96,2.15,2.46,2.69,4.03c0.14,0.41,0.43,1.1,0.7,0.02c-0.82-3.58-2.54-6.72-5.05-9.45
		c-1.29-0.22-1.74-1.5-2.77-2.06c-0.48-0.26-0.93-0.74-1.5-0.3c-0.44,0.34-0.35,0.85-0.19,1.32c0.33,0.9,0.3,1.87,0.59,2.78
		c0.12,0.47,0.28,0.93,0.38,1.4C168.52,77.38,168.89,78.46,170.27,78.64z"/>
	<path class="st35" d="M177.5,86.81c-0.3,1.38-0.59,2.75-0.89,4.13c-0.57,0.39-0.81,0.95-0.91,1.59c-0.33,2.55-1.25,4.87-2.85,6.92
		c-0.47,0.6-0.82,1.27-1.16,1.94c-0.85,2.34-2.95,3.79-4.34,5.75c-0.38,1.15-2,1.67-1.72,3.17c1.26,0.37,1.68-0.47,2.09-1.35
		c4.82-4.41,8.51-9.48,9.48-16C177.51,90.94,178.48,88.9,177.5,86.81z"/>
	<path class="st36" d="M167.73,108.96c-0.76,0.34-1.15,1.22-2.08,1.32c-0.17,0.1-0.31,0.24-0.43,0.4
		c-3.76,6.36-8.75,11.55-15.36,15.17c-1.32,0.72-2.84,1.09-3.91,2.26c-0.34,0.38-0.41,0.66-0.22,1.06
		c-0.06,0.12-0.04,0.22,0.06,0.31c8.12-3.78,14.76-9.22,19.68-16.57c0.36-0.53,0.66-1.05,1.41-1.05c0.18-0.6,0.43-1.16,0.84-1.64
		C168.01,109.79,168,109.37,167.73,108.96z"/>
	<path class="st37" d="M168.16,74.95c-0.23-1.26-0.47-2.52-0.76-4.07c0.99,0.67,1.88,1.02,2.55,1.77c0.41,0.46,0.81,1.18,1.64,0.55
		c-1.79-1.91-3.48-3.93-5.57-5.57c-0.92-0.26-1.45-1.26-2.51-1.27c-0.58,1.13-0.12,2.09,0.56,2.99c0.5,0.66,0.8,1.42,1.21,2.13
		C166.06,72.78,166.28,74.52,168.16,74.95z"/>
	<path class="st33" d="M167.74,110.2c-0.74,0.32-1.55,0.62-0.84,1.64C167.67,111.53,167.78,110.91,167.74,110.2z"/>
	<path class="st31" d="M495.29,107.77c3.3,0,6.6,0.05,9.9-0.01c3.4-0.07,5.06-1.72,5.1-4.91c0.04-3.27-1.42-4.9-4.97-4.97
		c-6.74-0.13-13.48-0.05-20.22-0.12c-1.28-0.01-1.51,0.53-1.49,1.6c0.05,2.32,0.07,4.63-0.01,6.95c-0.04,1.17,0.38,1.53,1.57,1.5
		c3.37-0.06,6.74-0.02,10.11-0.02C495.29,107.78,495.29,107.77,495.29,107.77z"/>
	<path class="st38" d="M103.54,77.82c-1.68,3.41-2.73,6.92-3.05,10.77c-0.41,4.83,0.64,9.26,2.63,13.55c1.59,3.42,4.12,6.15,7,8.66
		c2.99,2.61,6.54,4.24,10.21,5.31c3.24,0.95,6.71,1.87,10.25,1.06c-0.57-1.46-2.18-0.82-3.14-1.5c-0.47-0.15-0.96-0.27-1.43-0.42
		c-0.27-0.08-0.55-0.13-0.84-0.16c-0.65,0-1.25-0.19-1.79-0.54c-0.19-0.05-0.38-0.08-0.57-0.07c-3.45-0.15-6.27-1.87-9.02-3.6
		c-3.14-1.97-5.63-4.6-7.61-7.75c-2.06-3.28-3.36-6.76-3.59-10.54c-0.18-2.82-0.59-5.74,0.82-8.45c1.21-4.42,2.78-8.63,6.97-11.32
		c2.21-1.16,3.52-3.35,5.61-4.65c0.4-0.43,1.02-0.79,0.61-1.53c-1.65-0.58-2.63,0.74-3.69,1.43
		C109.02,70.6,105.6,73.61,103.54,77.82z"/>
	<path class="st39" d="M103.54,77.82c2.37-3.41,5.33-6.31,8.64-8.81c1.31-0.99,2.72-2.09,4.55-2.21c2.44-0.11,4.05-1.79,5.93-2.96
		c0.03-0.23-0.05-0.41-0.24-0.54c-2.9,0.11-5.37,1.45-7.9,2.63c-0.98,1.78-3.06,2.19-4.52,3.38c-2.4,1.95-4.3,4.26-5.98,6.78
		C103.67,76.6,103.47,77.18,103.54,77.82z"/>
	<path class="st40" d="M114.52,65.93c2.23-0.62,4.52-1.04,6.54-2.27c0.41-0.25,1.07-0.1,1.61-0.13c1.86,0.32,3.42-0.13,4.55-1.69
		c-3.52,0.66-7.15,0.77-10.46,2.42c-0.86,0.43-1.97,0.42-2.66,1.26C114.24,65.66,114.38,65.79,114.52,65.93z"/>
	<path class="st41" d="M127.18,115.95c0.92,0.96,2.41,0.45,3.4,1.22c0.96,0.15,1.93,0.29,2.89,0.44c0-0.69-0.01-1.38-0.01-2.07
		C131.31,114.9,129.25,115.52,127.18,115.95z"/>
	<path class="st42" d="M133.46,121.29c0-0.28,0-0.55,0-0.83c-4.23,0.39-8.45,0.67-12.63-0.41c-2.76-0.71-5.4-1.72-7.99-2.87
		c-0.42,0-0.85,0-1.27,0c5.78,4.36,12.54,5.08,19.52,4.87C131.88,122.02,132.66,121.55,133.46,121.29z"/>
	<path class="st43" d="M133.46,124.14c0-0.28,0-0.55,0-0.83c-0.44-0.22-0.89-0.52-1.39-0.36c-3.35,1.06-6.77,0.23-9.98-0.23
		c-4.02-0.57-8.14-1.61-11.56-4.16c-0.91-0.68-1.85-1.52-3.19-1.39c-0.14,0-0.28,0-0.42,0c1.39,2.17,3.78,2.95,5.95,4.04
		c4.34,2.2,9.14,2.64,13.87,3.3C128.98,124.82,131.21,124.21,133.46,124.14z"/>
	<path class="st42" d="M110.72,116.76c-0.45-0.83-1.24-1.09-2.11-1.23C109.05,116.37,109.7,116.86,110.72,116.76z"/>
	<path class="st44" d="M134,130.27c-0.02-0.27-0.05-0.54-0.07-0.8c-1.85-0.14-3.68-0.2-5.47,0.41c0.3,0.48,0.8,0.4,1.27,0.41
		C131.15,130.28,132.57,130.28,134,130.27z"/>
	<path class="st44" d="M123.81,129.47c1.34,0.84,2.82,0.22,4.22,0.41C126.79,128.18,125.25,129.35,123.81,129.47z"/>
	<path class="st45" d="M139.43,60.15c-1.12-0.01-2.25-0.02-3.37-0.03c-0.67,0.04-1.34,0.08-2.01,0.12
		c-0.04,0.11-0.08,0.22-0.12,0.33c0.57,1.16,1.41,2.01,2.72,2.42c2.75,0.85,5.26,2.01,6.62,4.74c0.35,0.7,1.07,1.05,1.94,0.8
		c1-0.89-0.11-1.95,0.24-2.89c-0.84-0.99-1.92-1.76-2.74-2.77c-1-1.23-2.56-0.99-3.47-1.17c0.08,0.05,0.66,0.18,0.96-0.34
		C140.61,60.67,139.74,60.53,139.43,60.15z"/>
	<path class="st46" d="M145.35,68.39c-1.06-0.2-1.58-0.59-1.98-1.81c-0.42-1.28-2.07-2.09-3.4-2.81c-1.06-0.57-2.12-1.18-3.4-1.32
		c-1.19-0.13-1.48-1.6-2.63-1.88c-0.86,0.01-1.74-0.03-2.52,0.44c-0.17,1.5,0.55,2.21,2.07,2.41c2,0.26,3.18,2.18,5.16,2.55
		c0.32,0.06,0.24,0.39,0.1,0.66c-0.46,0.88,0.28,1.33,0.85,1.56c1.37,0.56,1.88,1.63,2.21,2.89c2.68,1.82,4.53,4.1,4.45,7.47
		c0.88,3.3,0.25,6.58-0.16,9.86c-0.1,0.79-0.5,1.57,0.21,2.27c0.5,0.06,1,0.06,1.49,0c1.68-2.08,1.07-4.69,1.68-7.02
		c1.24-4.76-0.91-8.8-3.17-12.76c-0.44-0.76-0.37-1.58-0.74-2.31C145.5,68.52,145.43,68.45,145.35,68.39z"/>
	<path class="st47" d="M141.98,70.83c0.76-2.6-2.11-2.39-3.05-3.71c0.03-0.71,1.21-0.07,1.12-0.82c-0.07-0.54-0.69-0.74-1.11-0.79
		c-2.42-0.31-3.72-3.07-6.47-2.76c-0.27,0.03-0.69-1.13-1.04-1.74c-0.53,0.02-1.05,0.04-1.58,0.06c-0.8,0.48-1.69,0.7-2.62,0.77
		c-1.52,0.56-3.03,1.13-4.55,1.69c-0.04,0.12-0.08,0.23-0.12,0.35c2.41,2.38,5.19,2.42,8.37,1.7c1.61-0.37,3.37,0.6,5.03,0.94
		c-0.57,0.59-2.69,0.51-0.89,2.09c0.6,0.38,1.92-0.09,1.56,1.45c-0.11,0.46,0.85,0.73,1.46,0.85
		C139.38,70.87,140.69,71.45,141.98,70.83z"/>
	<path class="st48" d="M158.45,63.54c0.66,2.38,3.01,3.77,3.8,6.08c0.03,0.6,0.3,0.98,0.96,1.02c0.22-0.03,0.4-0.14,0.53-0.32
		c0.44-2.25-1.42-3.46-2.43-5.06c-0.17-0.27-0.57-0.38-0.7-0.71c-0.43-0.27-0.87-0.53-1.3-0.8
		C159.02,63.68,158.73,63.61,158.45,63.54z"/>
	<path class="st49" d="M160.6,64.55c0.59,1.38,1.39,2.62,2.42,3.75c0.53,0.58,0.55,1.38,0.5,2.14c0.15,0.67,0.63,0.99,1.28,1.13
		c0.32,0.01,0.61-0.06,0.83-0.3c-0.44-1.74-2.26-2.91-2.11-4.89c-0.14-0.14-0.29-0.28-0.43-0.41
		C162.29,65.42,161.56,64.8,160.6,64.55z"/>
	<path class="st50" d="M139.43,60.15c0.83,1.05,0.69,1.59-1.12,1.44c3.54,0.01,4.8,2.89,7.05,4.34c1.3,1.69,2.59,3.41,4.93,3.85
		c0.43-0.85-0.15-1.76,0.14-2.62c-2.3-1.4-3.6-4.01-6.3-4.95c-1.07-0.37-0.54-1.39-0.88-2.06C141.97,60.15,140.7,60.15,139.43,60.15
		z"/>
	<path class="st51" d="M161.41,74.54c-0.56-0.82-0.66-1.94-1.69-2.46c-0.53,1.11-0.3,2.24-0.08,3.37c0.06,1.26,0.17,2.51,0.39,3.76
		c0.41,1.65,0.43,3.35,0.7,5.01c0.72,0.71,1.45,0.64,1.74-0.27c0.23-0.72,0.92-1.19,0.95-1.97c-0.01-0.18-0.04-0.37-0.1-0.54
		c-0.46-0.76-0.39-1.56-0.19-2.37C163.17,77.33,162.73,75.77,161.41,74.54z"/>
	<path class="st52" d="M161.41,74.54c0.41,1.64,1.54,3.11,1.27,4.92c0.21,0.67-0.02,1.42,0.42,2.05c0.45,0.52,0.49,1.09,0.3,1.72
		c-0.13,0.46,0.01,0.8,0.54,0.89c0.42-0.02,0.81-0.15,1.15-0.38c0.82-1.23,0.28-2.55,0.06-3.75c-0.28-1.53-0.55-3.09-1.11-4.57
		c-0.55-1.23,0.04-3.18-2.21-3.34c-0.72,0.56-0.29,1.04,0.08,1.55C162.36,74.24,162.01,74.46,161.41,74.54z"/>
	<path class="st53" d="M160.14,75.36c-0.14-1.09-0.28-2.19-0.42-3.28v0c-0.33-0.52-0.39-1.18-0.84-1.64
		c-0.01-0.34-0.08-0.64-0.42-0.82c-1.67-0.66-1.79-2.99-3.8-3.28c-0.41,0.95,0.51,1.39,0.84,2.05l0,0c0.84,2.29,1.75,4.54,3.31,6.48
		C159.14,75.28,159.44,75.85,160.14,75.36z"/>
	<path class="st54" d="M161.83,72.08c1.62,0.58,1.2,2.15,1.69,3.28c0.68,0.62,1.05,1.6,2.15,1.74c0.29-0.14,0.48-0.35,0.54-0.66
		c-0.92-2.05-1.45-4.3-3.11-5.99c-0.28-0.27-0.56-0.55-0.84-0.82c-0.66-0.37-1.22-0.99-2.11-0.82
		C160.45,70.01,162.44,70.42,161.83,72.08z"/>
	<path class="st51" d="M158.87,70.44c0.07,0.65,0.3,1.22,0.84,1.64C159.75,71.38,159.64,70.75,158.87,70.44z"/>
	<path class="st55" d="M155.49,68.39c-0.28-0.68-0.56-1.37-0.84-2.05c-0.14-0.14-0.28-0.27-0.42-0.41
		C153.11,67.49,154.47,67.86,155.49,68.39z"/>
	<path class="st56" d="M155.49,90.94c0,0.68,0,1.36,0.01,2.05c0.1,0.03,0.19,0.07,0.28,0.1c0.19-0.08,0.33-0.21,0.43-0.38
		c0.22-1.01,0.37-2.05,0.81-3.01c0.12-2.06,0.54-4.07,0.92-6.09c0.51-2.73,0.32-5.36-0.83-7.9c-0.22-0.48-0.06-0.93-0.02-1.4
		c0.05-1.07-0.88-1.73-1.19-2.65c-0.42,0-0.84,0-1.27,0c-0.41,1.16,1.48,2.04,0.42,3.28c-0.57,1.11-0.18,2.26-0.12,3.38
		c0.12,2.31-0.01,4.52-0.95,6.75c-0.72,1.71-1.01,3.64-0.65,5.55C154.03,90.91,154.83,90.47,155.49,90.94z"/>
	<path class="st55" d="M155.91,71.67c-1.05,1.25,0.89,1.54,0.85,2.46c0.74,1.78,0.59,3.92,2.33,5.29c0.56,0.12,1.05,0.01,1.47-0.37
		c-0.14-1.23-0.28-2.46-0.42-3.69c-1.03-0.82-1.87-1.73-2.28-3.03c-0.46-1.47-1.43-2.71-2.37-3.94c-0.58,0.67-0.87,1.31,0.08,1.94
		C156.08,70.66,156.28,71.11,155.91,71.67z"/>
	<path class="st57" d="M153.38,90.52c1.03-1.51,0.13-3.43,0.92-4.86c0.89-1.61,1.05-3.24,1.22-4.96c0.19-1.96-0.14-3.84-0.46-5.74
		c-1.3-2.73-2.66-5.44-4.65-7.79c-1.26,0.82-0.67,1.64,0,2.46c-1.21,1.81,0.79,2.82,1.12,4.25c1.25,2.28,1.27,4.85,1.7,7.31
		c0.32,1.82-0.15,3.67-1.03,5.32c-0.52,0.98-0.62,1.97-0.39,2.97C151.98,90.17,152.28,90.99,153.38,90.52z"/>
	<path class="st58" d="M123.41,92.97c0-0.67,0-1.34-0.01-2.02c0.31-1.76-1.08-2.89-1.85-4.13c-1.34-2.17-0.27-4.08,0.2-6.02
		c0.28-1.14,4.44-1.92,5.81-1.3c0.32,0.15,0.57,0.48,0.9,0.53c2.38,0.33,3.68,1.45,3.25,3.95c-0.05,0.27,0.24,0.45,0.45,0.65
		c0.49,0.45,1.62,0.45,1.2,1.57c-0.44,1.19-1.04,2.31-2.48,2.43c-1.64,0.13-3.12,0.81-4.72,1.03c-0.42,0.06-0.83,0.16-1.24,0.92
		c4.28,0.23,8.39,0.25,12.52,0c1.2-2.01,2.6-4,0.88-6.4c-1.1-0.83-2.57-1.12-3.54-2.12c-1.18-1.22-1.89-2.66-1.95-4.37
		c-0.03-0.87,0.09-1.77-0.46-2.56c-3.81-1.41-7.62-2.04-11.48-0.16c-2.83,2.34-4.91,5.13-5.54,8.78c-0.47,2.71,1.81,7.24,4.31,8.49
		c0.69,0.34,1.34,0.73,2.01,1.1C122.34,93.72,122.99,93.81,123.41,92.97z"/>
	<path class="st59" d="M137.33,90.52c-3.93,0-7.86,0-12.16,0c2.58-0.92,5.02-0.9,7.16-1.97c0.45-0.23,1.62-0.02,1.32-0.51
		c-0.76-1.22,1.94-3.15-0.9-3.77c-1.29-0.28-0.47-0.4-0.07-0.91c0.46-0.59-1.81-3.42-2.68-3.5c-0.42-0.04-1.01,0.07-1.22-0.15
		c-2.02-2.17-4.18-0.65-6.22-0.19c-1.05,0.23-2.32,0.85-1.53,2.43c0.49,0.98-1.43,0.9-0.93,1.44c1,1.07-0.94,2.95,1.19,3.55
		c-1.18,1.6,2.32,1.75,1.1,3.36c0.34,0.22,0.68,0.44,1.02,0.66c6.47-0.01,12.94-0.02,19.42-0.03c0.13-0.24,0.08-0.44-0.15-0.61
		c-0.32-0.2-0.67-0.28-1.04-0.33C140.18,90.02,138.66,89.58,137.33,90.52z"/>
	<path class="st60" d="M123.41,92.97c-1.84,0.35-5.35-1.82-5.94-3.66c-0.16-0.51-0.32-1.04-0.59-1.5c-1.84-3.09-1.17-6.82,1.57-9.27
		c0.99-0.89,1.26-2.36,2.4-3.18c-1.31-0.64-2.3-0.31-3.35,0.68c-1.94,1.82-3.7,3.65-4.56,6.24c-0.68,2.05-0.61,3.81,0.59,5.63
		c2,3.02,4.23,5.87,7,8.24c1.55,1.33,3.45,2,5.62,1.85c2.17-0.15,4.32-0.33,6.41-0.94c0.67-0.13,0.67-0.77,0.94-1.19
		c0.04-2.87,0.04-2.87-2.82-2.87C128.26,92.99,125.84,92.98,123.41,92.97z"/>
	<path class="st61" d="M133.5,101.6c0-0.82,0-1.64,0.01-2.46c-0.68-0.63-1.44-0.38-2.18-0.16c-0.95,0.28-1.92,0.35-2.89,0.48
		c-5.43,0.71-9.58-1.62-13.41-4.99c-1.59-1.4-3.77-2.09-5.11-3.84c-0.23-0.3-0.67-0.14-1-0.09c-1.06,0.17-1.76-0.71-2.74-0.89
		c-1.05-0.19-0.4-1.47-0.84-2.15c-0.2-0.62-0.37-1.24-1.03-1.57c-0.91,0.27-0.75,0.97-0.72,1.63c0.4,1.53,0.18,3.22,1.18,4.62
		c0.35,0.51,0.68,1.04,1.23,1.38c3.63,0.66,6.49,2.68,9.24,4.91c0.76,0.61,1.64,1.06,2.38,1.7c3.41,2.38,7.2,3.37,11.35,2.66
		C130.49,102.55,132.27,103,133.5,101.6z"/>
	<path class="st62" d="M104.81,87.65c0.22,1.11,0.44,2.22,0.73,3.63c0.58-0.68,0.97-1.82,1.79-0.72c0.56,0.75,1.11,1,1.91,0.4
		c0.28-0.21,0.48-0.16,0.63,0.17c0.82,1.82,2.86,2.11,4.2,3.22c1.49,1.23,3.11,2.25,4.61,3.41c3.78,2.93,7.94,2.36,12.17,1.86
		c0.89-0.1,1.71-0.62,2.66-0.48c0-1.09,0-2.18,0.01-3.27c-0.28,0.27-0.55,0.54-0.83,0.81c-1.98,1.29-4.01,1.3-6.44,1.24
		c-4.31-0.12-7.25-2.47-10.52-4.38c-1.98-1.15-3.08-3.31-4.99-4.62c-0.95-0.65-0.83-1.8-0.85-2.83c-0.01-0.72-0.34-1.34-1.05-1.64
		c-0.82-0.34-0.9,0.34-1.13,0.81c-0.06,0.12-0.04,0.29-0.33,0.18C104.99,84.5,105.17,86.38,104.81,87.65z"/>
	<path class="st63" d="M133.5,101.6c-3.09,0.63-6.24,1.16-9.35,0.73c-2.39-0.33-4.61-1.49-6.67-2.79c-1.54-0.49-2.89-1.35-4.28-2.11
		c-1.87-1.03-3.86-1.48-6-1.06c-0.29,0.99,0.28,1.63,0.95,2.24c3.27,1.2,6.32,2.97,9.53,4.18c4.17,1.57,8.59,3.05,13.29,2.17
		c0.9-0.17,1.82-0.25,2.53-0.9C133.49,103.24,133.49,102.42,133.5,101.6z"/>
	<path class="st64" d="M105.23,92.16c-0.95-1.38-0.54-3.1-1.22-4.54c-0.59,0.43-0.61,1.06-0.58,1.67
		c0.38,7.96,3.62,14.56,9.99,19.65c2.3,1.12,4.45,2.55,6.89,3.42c1.12,0.4,2.22,0.83,3.43,0.86c2.6,0.28,5.19,0.7,7.81,0.08
		c0.66-0.16,1.38-0.12,1.92-0.63c0-0.27,0-0.55,0-0.82c-1.18-0.91-2.56-0.46-3.86-0.55c-6.25-0.43-12.17-1.74-17.12-5.79
		C108.94,101.64,106.7,97.1,105.23,92.16z"/>
	<path class="st65" d="M145.38,105.28c0,0.69,0,1.37,0,2.06c0.63,0.54,1.41,0.54,1.91,0.02c2.34-2.47,5.62-4.05,7.26-7.18
		c1.58-2.95,3.23-5.87,5.18-8.61c0.66-0.93,0.7-1.72,0.15-2.63c-1.43-0.3-1.8,0.95-2.44,1.68c-0.61,0.69-0.97,1.59-1.5,2.37l0,0
		c-1.46,1.96-2.79,4.03-4.32,5.89c-1.65,2-3.5,3.97-5.64,5.57C145.67,104.65,145.59,105.01,145.38,105.28z"/>
	<path class="st66" d="M133.49,104.06c-1.87,0.18-3.74,0.45-5.61,0.5c-2.38,0.07-4.56-0.95-6.81-1.41c-3.51-0.71-6.19-2.73-9.3-4
		c-1.04-0.42-2.36-0.67-3.59-0.85c-0.59,0.95,0.32,1.41,0.7,2.05c0.94,1.09,2.11,1.76,3.59,1.96c0.84,0.11,1.59,0.51,2.35,0.88
		c4.38,2.11,9.01,3.34,13.91,3.43c1.68,0.03,3.38-0.19,4.75-1.34C133.49,104.88,133.49,104.47,133.49,104.06z"/>
	<path class="st67" d="M133.49,105.29c-1.87,0.17-3.64,1.14-5.56,0.8c-3.56-0.62-7.2-0.75-10.56-2.51c-1.23-0.64-2.6-1.48-4.14-1.65
		c-1.63-0.18-3.06-0.8-4.2-1.97c-0.55,0.96,0.34,1.4,0.76,2.01c0.99,1.44,2.54,2.02,4.11,2.65c3.62,1.44,7.23,2.96,11.13,3.52
		c2.85,0.41,5.71,0.17,8.45-0.8C133.49,106.66,133.49,105.97,133.49,105.29z"/>
	<path class="st68" d="M133.48,107.34c-1.54-0.01-3.05,0.19-4.58,0.33c-3.88,0.34-7.61-0.52-11.04-2.29
		c-1.28-0.66-2.71-0.83-4.02-1.39c-1.51-0.64-2.7-1.52-3.97-2.39c0.06,2.44,2.1,3.48,3.82,4.31c5.46,2.62,11.1,4.8,17.43,4.03
		c0.89-0.11,1.86,0.05,2.36-0.95C133.48,108.44,133.48,107.89,133.48,107.34z"/>
	<path class="st69" d="M145.73,129.16c1.15-2.34,3.86-2.4,5.76-3.64c4.71-3.06,8.83-6.64,11.89-11.29c0.78-1.18,2.05-2.08,2.25-3.6
		c-1.49-0.1-2.32,0.95-3.29,1.77c-4.04,5.69-8.96,10.42-15.47,13.41c-0.8,0.37-1.14,0.93-1.48,1.6
		C145.34,128.03,145.27,128.64,145.73,129.16z"/>
	<path class="st67" d="M153.38,90.52c-2.15-0.71-1.28-2.59-0.83-3.47c1.12-2.22,1.31-4.37,1.11-6.77c-0.2-2.42-0.96-4.66-1.55-6.97
		c-1.09-0.54-1.6-0.22-1.37,0.95c0.11,0.58,0.44,1.12,0.02,1.7c-0.07,0.17-0.1,0.35-0.09,0.53c0.1,0.65,1.02,1.06,0.57,1.87
		c-1.08,2.06-0.31,4.3-0.63,6.45c-0.23,1.51-0.42,2.93-1.18,4.26c-0.33,0.57-0.61,1.11,0.14,1.58c0.83,0.26,1.74-0.16,2.55,0.27
		c1.12,0.01,2.25,0.02,3.37,0.03C154.91,90.24,154.09,90.63,153.38,90.52z"/>
	<path class="st70" d="M133.48,108.99c-5.18,0.69-10.24,0.87-15.05-1.83c-1.95-1.1-4.45-1.22-6.21-2.8
		c-0.91-0.81-2.11-1.41-2.35-2.76c-0.24-0.57-0.91-0.93-0.84-1.64c-0.24-0.57-0.91-0.93-0.84-1.64c-0.28-0.68-0.56-1.37-0.85-2.05
		c0.28-1.25-0.5-2.05-1.26-2.87c-0.28-0.41-0.56-0.82-0.85-1.23c0.02,3.61,1.95,6.52,3.69,9.5c0.85,1.47,1.87,2.82,3.07,4.03
		c3.53,2.31,7.39,3.98,11.52,4.83c3.33,0.69,6.8,1.45,9.96-0.73C133.47,109.53,133.48,109.26,133.48,108.99z"/>
	<path class="st71" d="M145.38,109.79c0,0.14,0.01,0.27,0.01,0.41c1.68,0.7,2.9-0.12,4.12-1.1c2.95-2.37,5.66-4.98,8.44-7.52
		c1.2-0.86,2.16-1.89,2.54-3.33c0.25-1.4,1.29-2.56,1.38-4.02c0.02-0.41-0.04-0.81-0.29-1.16c-0.67-0.44-1.2,0.08-1.34,0.48
		c-0.9,2.54-3.5,3.85-4.66,6.18c-1.28,3.24-4.31,4.93-6.81,7.04C147.61,107.75,146.4,108.66,145.38,109.79z"/>
	<path class="st72" d="M145.38,105.28c1.97-1.47,3.65-3.25,5.41-4.89c1.84-1.7,2.4-4.16,4.45-5.55c0.59-0.4,0.72-1.14,0.67-1.85
		l-0.21,0l-0.21,0l-0.01-0.01c-0.64,0.47-1.4,0.06-2.07,0.29c-2.1,2.06-3.89,4.39-5.85,6.58c-0.69,0.77-1.43,1.47-2.19,2.16
		C145.38,103.1,145.38,104.19,145.38,105.28z"/>
	<path class="st73" d="M145.39,115.94c0,0.69-0.01,1.38-0.01,2.06c0.85,0.61,1.64,0.17,2.45-0.11c2.48-2.46,6.18-3.11,8.68-5.6
		c0.99-0.98,1.92-1.96,2.68-3.11c0.4-0.7,1-1.34,0.67-2.24c-0.21-0.25-0.49-0.35-0.81-0.38c-0.2,0-0.4,0.04-0.59,0.11
		c-0.9,0.42-1.2,1.45-2.07,1.91c-1.63,0.64-2.18,2.62-4.01,3.01C150.55,113.8,147.67,114.43,145.39,115.94z"/>
	<path class="st17" d="M145.41,127.42c1.44-1.43,3.53-1.76,5.17-2.9c4.73-3.3,9.06-6.95,12.09-11.86c-0.93-0.57-1.52,0.27-2.26,0.5
		c-0.26,0.16-0.47,0.38-0.62,0.64c-3.7,4.32-7.62,8.4-12.94,10.91c-0.56,0.26-1.19,0.43-1.45,1.07
		C145.4,126.32,145.4,126.87,145.41,127.42z"/>
	<path class="st74" d="M157.6,101.19c-2.87,2.58-5.76,5.13-8.59,7.75c-1.05,0.97-2.35,1.03-3.63,1.27c0,0.82,0,1.64,0,2.46
		c0.32,0.31,0.71,0.36,1.13,0.29c0.88-0.25,1.6-0.76,2.13-1.46c0.61-0.81,1.39-1.23,2.37-1.38c0.19-0.07,0.35-0.17,0.5-0.3
		c1.87-1.68,3.82-3.28,5.22-5.39C156.78,103.28,158.58,102.58,157.6,101.19z"/>
	<path class="st75" d="M133.47,109.8c-2.51,0.35-4.9,0.92-7.58,0.61c-3.57-0.41-6.65-1.85-9.9-2.99c-1.37-0.48-2.54-1.45-4.01-1.72
		c2.28,2.06,4.88,3.55,7.88,4.42c4.45,1.3,8.95,2.03,13.61,1.73C133.47,111.16,133.47,110.48,133.47,109.8z"/>
	<path class="st76" d="M145.39,125.78c4.08-1.54,7.39-4.07,10.55-6.99c1.38-1.28,1.93-3.37,4-3.98c0.15-0.04,0.13-0.62,0.18-0.95
		c-0.15-0.11-0.33-0.15-0.52-0.12c-0.61,0.21-1.21,0.45-1.8,0.71c-0.26,0.14-0.46,0.33-0.64,0.56c-2.99,3.25-6.5,5.9-10.33,8.15
		c-0.62,0.36-1.14,0.76-1.45,1.4C145.39,124.96,145.39,125.37,145.39,125.78z"/>
	<path class="st77" d="M145.38,109.79c1.86-1.12,3.69-2.3,5.14-3.91c0.53-0.59,1.16-0.95,1.82-1.34c1.79-1.08,2.76-2.78,3.58-4.59
		c-0.56-0.51-1.13-0.35-1.69,0c-1.7,2.87-4.91,4.3-6.92,6.88c-0.48,0.62-1.24,0.48-1.93,0.5
		C145.38,108.16,145.38,108.98,145.38,109.79z"/>
	<path class="st78" d="M146.62,112.66c-0.41,0-0.82,0-1.24,0c0,0.82,0,1.64-0.01,2.46c0.3,0.27,0.67,0.29,0.95,0.05
		c1.6-1.35,3.49-2.24,5.38-3.11c2.5-1.91,5.07-3.74,6.97-6.28c0.3-0.4,0.83-0.47,1.21-0.77c0.62-0.6,1.13-1.24,0.8-2.17
		c-1.92-0.94-2.67,0.98-3.42,1.75c-1.86,1.92-4.06,3.41-6.01,5.2v0C149.5,110.42,148.44,112.11,146.62,112.66z"/>
	<path class="st79" d="M123.39,112.66c-3.17-0.52-5.87-2.08-8.59-3.62c-0.35-0.2-0.75-0.32-1.13-0.48
		c-0.15,1.41,1.28,1.58,1.94,2.35c2.31,1.52,4.54,3.19,7.36,3.78c0.14,0.01,0.28,0.02,0.41,0.04c0.32,0.75,1.19,0.43,1.7,0.8
		c0.28,0,0.56,0,0.84,0c1.79-0.19,3.58-0.25,5.38-0.31c0.73-0.03,1.57,0.18,2.15-0.5c0-0.27,0-0.55,0.01-0.82
		c-0.65-0.59-1.41-0.38-2.16-0.29C128.58,113.94,125.98,113.36,123.39,112.66z"/>
	<path class="st80" d="M145.39,124.55c4.09-2.27,7.88-4.93,11.27-8.14c0.42-0.4,0.7-0.82,0.94-1.31c-1.4-0.57-2.41,0.29-3.49,0.89
		c-2.27,2.34-4.92,4.21-7.73,5.89c-0.43,0.26-0.75,0.6-0.99,1.03C145.39,123.46,145.39,124,145.39,124.55z"/>
	<path class="st81" d="M145.38,102.01c1.88,0.18,2.31-1.49,3.12-2.5c1.62-2.04,3.95-3.56,4.89-6.1c-0.57-0.39-1.22-0.13-1.83-0.2
		c-1.39,0.45-2.44,1.19-2.97,2.62c-0.69,1.86-2.4,3.14-3.21,4.95C145.37,101.18,145.37,101.59,145.38,102.01z"/>
	<path class="st82" d="M145.39,122.91c3.26-1.78,6.46-3.65,8.83-6.56c-0.15-0.16-0.33-0.26-0.54-0.3c-1.18-0.01-2.27,0.31-3.31,0.83
		c-1.56,1.33-3.66,1.94-4.98,3.58C145.39,121.27,145.39,122.09,145.39,122.91z"/>
	<path class="st83" d="M151.27,93.4c0.7,0,1.41,0,2.11,0c0.71-0.11,1.52,0.28,2.1-0.43c-2.71,0.01-5.42,0.09-8.12,0
		c-1.5-0.05-2.22,0.32-2.04,1.9c0.12,1,0.04,2.02,0.05,3.03c1.16,0.16,2.03-0.6,2.26-1.39C148.19,94.62,149.57,93.9,151.27,93.4z"/>
	<path class="st84" d="M151.27,93.4c-2.11-0.28-3.46,0.38-3.87,2.6c-0.18,0.94-1.29,1.31-2.03,1.9c0,0.96,0,1.91,0,2.87
		c1.84-1.63,3.33-3.46,4.12-5.83C149.7,94.33,150.96,94.25,151.27,93.4z"/>
	<path class="st85" d="M123.39,112.66c2.63,1.1,5.31,2,8.25,1.5c0.61-0.1,1.22-0.18,1.83-0.27c0-0.41,0-0.82,0-1.23
		C130.11,112.77,126.75,113.34,123.39,112.66z"/>
	<path class="st86" d="M151.69,111.84c-2.62,0.17-4.2,2.2-6.31,3.28c0,0.27,0.01,0.55,0.01,0.82c2.79-0.7,5.46-1.6,7.15-4.1
		C152.25,111.58,151.97,111.61,151.69,111.84z"/>
	<path class="st87" d="M133.46,114.72c-1.7,0.04-3.41,0.25-5.09,0.07c-1.04-0.11-1.7,0.28-2.44,0.74c0.3,0.47,0.79,0.4,1.25,0.42
		c2.14,0.49,4.19-0.24,6.28-0.41C133.46,115.26,133.46,114.99,133.46,114.72z"/>
	<path class="st43" d="M145.39,120.46c1.81-0.89,3.64-1.76,5.04-3.26c-0.97-0.66-1.72,0.05-2.54,0.37c-0.84,0.15-1.67,0.3-2.51,0.45
		C145.38,118.82,145.39,119.64,145.39,120.46z"/>
	<path class="st58" d="M152.12,90.91c-0.76-0.68-1.7-0.25-2.54-0.38c-0.56-0.38-1.13-0.45-1.69,0c-0.56,0-1.13,0-1.69,0
		c-0.7-0.65-1.57-0.56-2.43-0.49c-0.37,0.06-0.71,0.19-0.95,0.49c0,0.13,0,0.26,0,0.39C145.92,90.92,149.02,90.91,152.12,90.91z"/>
	<path class="st88" d="M176.18,92.56c0.15-0.54,0.29-1.08,0.44-1.62c-0.73-2.41-1.08-4.93-2.39-7.16c-0.57-0.97-1.02-2.01-2.39-3.44
		c1.09,2.24-0.36,2.03-1.14,2.4c-0.4,0.21-0.61,0.56-0.75,0.96c-0.33,1.61,0.94,3.04,0.57,4.66c0.21,0.47,0.4,1.27,1.08,0.79
		c2.02-1.42,2.16,0.3,2.64,1.41c0.38,0.88-0.03,2.13,1.31,2.56C175.92,93.11,176,92.79,176.18,92.56z"/>
	<path class="st89" d="M170.27,83.56c0.34-0.18,0.41-0.48,0.42-0.82c-0.95-1.29,0.43-2.8-0.42-4.1c-0.68-0.75-1.55-1.37-1.69-2.46
		c-0.23-0.13-0.43-0.1-0.59,0.11c-0.32,1.54,0.13,3.06,0.11,4.59c0.12,0.63,0.32,1.24,0.64,1.8
		C169.17,83.12,169.49,83.72,170.27,83.56z"/>
	<path class="st90" d="M168.16,76.18c0.14,0,0.28,0,0.42,0c-0.14-0.41-0.28-0.82-0.42-1.23c-1.14-1.04-1.83-2.37-2.53-3.69
		c-0.28,0-0.56,0-0.84,0c-0.56,1.6,0.7,2.63,1.27,3.88C166.71,75.57,167.15,76.42,168.16,76.18z"/>
	<path class="st91" d="M176.18,92.56c-0.14,0.14-0.29,0.27-0.43,0.41c-0.37,0.16-0.63,0.42-0.79,0.78
		c-0.27,0.68-0.61,1.34-0.88,2.02c-0.22,0.91-1,1.52-1.37,2.35c-0.93,2.16-2.47,3.53-4.99,3.63c-0.76,0.19-1.11,0.83-1.59,1.33
		c-0.95,1.07-1.77,2.25-2.72,3.32c-0.48,0.54-0.87,1.07-0.42,1.8c0.26,0.2,0.56,0.25,0.89,0.2c2.32-2.68,6.45-3.35,8.08-6.81
		C174.04,98.88,175.96,96.1,176.18,92.56z"/>
	<path class="st92" d="M171.97,101.6c-1.57,1.58-3.1,3.09-5.43,3.82c-1.06,0.33-1.74,1.79-2.6,2.74c-0.46,0.46-0.9,0.93-0.52,1.64
		c1.05,0.39,1.7-0.28,2.25-0.92c0.58-0.69,1.34-1.08,2.07-1.54C169.15,105.42,171.43,104.12,171.97,101.6z"/>
	<path class="st93" d="M167.74,107.33c-0.95-0.06-1.78,0.04-2.26,1.04c-0.37,0.78-1.21,1.07-1.97,1.42
		c-1.27,0.36-1.92,1.54-3.02,2.15c-0.76,0.42-0.49,1.01,0.05,1.5c0.86,0.12,1.29-0.83,2.12-0.79c0.99-0.67,1.98-1.34,2.97-2.02
		c0.01-0.12,0.02-0.24,0.01-0.36C166.12,109.14,167.4,108.55,167.74,107.33z"/>
	<path class="st94" d="M137.77,70.45c-0.33-0.21-1.04-0.33-0.87-0.7c0.56-1.26,0.63-1.24-0.84-1.35c-0.28-0.02-0.56,0-0.84,0
		c-4.41-1.42-8.89-2.53-13.57-1.69c-1.99,0.36-3.97,0.84-5.96,1.22c-2.24,1.05-3.47,3.22-5.44,4.57c-0.3,0.27-0.72,0.51-0.28,0.98
		c1.96-0.19,3.92-0.17,5.32-2.04c0.8-1.06,2.16-1.78,3.74-1.1c0.32,0.14,0.73,0.17,1.04,0.03c2.64-1.27,5.3-0.73,8.01-0.25
		c1.4,0.25,2.75,0.4,3.83,1.43c0.96,0.92,2.17,0.83,3.37,0.53C136.18,71.62,137.45,71.71,137.77,70.45z"/>
	<path class="st95" d="M122.98,114.69c-2.39-1.36-4.79-2.72-7.18-4.08c-3.52-1.65-6.02-4.4-8.11-7.45
		c-3.12-4.54-4.27-9.68-4.14-15.11c0.03-1.38,0.52-2.66,1.07-3.91c0.08-0.31,0.06-0.61-0.09-0.9c-0.87-0.48-1.1,0.21-1.41,0.74
		c-1.32,1.53-1.18,3.41-1.24,5.2c-0.15,4.37,0.57,8.72,2.73,12.49c1.84,3.22,3.98,6.39,7.39,8.59c2.6,1.67,5.18,3.25,8.1,4.29
		C121.04,114.87,121.96,115.47,122.98,114.69z"/>
	<path class="st61" d="M115.69,67.92c1.49,1.24,3.07,0.16,4.29-0.27c2.84-0.98,5.57-0.54,8.38-0.36c2.34,0.15,4.46,1.44,6.86,1.09
		c-0.33-0.81-0.33-0.81,1.67-2.03c-2.65-0.55-4.73-2.02-7.46-1.02c-1.16,0.43-2.61,0.12-3.93,0.11c-0.26,0-0.74-0.21-0.73-0.31
		c0.07-1.81-1.33-1.1-2.22-1.25c-2.18,0.52-3.8,2.09-5.81,2.92C116.39,67.17,116.04,67.54,115.69,67.92z"/>
	<path class="st95" d="M103.12,83.97c0.41-0.27,0.82-0.55,1.24-0.82c0.72-0.11,1.11-0.62,1.3-1.21c0.92-2.83,2.45-5.35,4.09-7.83
		c0.15-0.23,0.19-0.51,0.18-0.79c0.11-0.28,0.22-0.56,0.33-0.83c-3.15,0.95-4.05,3.88-5.4,6.22
		C103.97,80.25,102.81,81.95,103.12,83.97z"/>
	<path class="st95" d="M125.09,115.53c-0.57-0.27-1.13-0.53-1.7-0.8C123.55,115.82,124.43,115.45,125.09,115.53z"/>
	<path class="st96" d="M150.85,76.18c1.31-0.33,0.9-1.1,0.44-1.81c-0.74-1.14,0.15-1,0.83-1.06c-1.02-1.03-1.85-2.15-1.69-3.69
		c-1.4-0.27-2.27-1.37-3.14-2.25c-0.6-0.61-1.35-0.89-1.93-1.44c-1.54,0.82,0.6,1.64,0,2.46v0c1.09,1.83,2.96,3.16,3.27,5.53
		C148.75,74.83,149.83,75.66,150.85,76.18z"/>
	<path class="st31" d="M137.77,70.45c-0.85,0.41-1.71,0.81-2.56,1.22c-1.69,0.7-2.8,1.83-2.95,3.69c0.13,1.46-0.22,2.93,0.33,4.39
		c0.98,2.59,2.95,3.96,5.58,4.64c1.19,0.76,2.41,0.51,3.64,0.12c1.03-0.35,1.94-0.94,2.83-1.55c1.12-1.24,2.2-2.5,1.97-4.32
		c0.33-3.66-1.41-6.15-4.65-7.81C140.61,70.39,139.19,70.41,137.77,70.45z"/>
	<path class="st97" d="M150.85,76.18c-0.34-0.67-0.64-1.37-1.3-1.82c-0.17-0.12-0.51-0.3-0.5-0.33c0.86-1.87-1.21-2.43-1.67-3.66
		c-0.41-1.09-0.93-1.72-2.03-1.97c-1.07,2.09,0.98,3.37,1.68,4.8c1.15,2.35,1.47,4.92,2.62,7.25c0.27,0.55-0.54,1.94-0.68,3.02
		c-0.3,2.36-0.72,4.71-1.09,7.07c0.56,0,1.13,0,1.69,0c-0.76-1.12,0.69-1.41,0.95-2.18c0.87-2.57,0.75-5.16,0.73-7.76
		c-0.01-0.91-0.02-1.77,0.86-2.36c-0.4-0.56-0.89-1.06-1.27-1.64C150.85,76.45,150.85,76.31,150.85,76.18z"/>
	<path class="st98" d="M146.62,78.64c-0.44,1.49-1.33,2.75-2.13,4.06c-0.41,0.45-0.38,0.98-0.38,1.54
		c-0.01,1.62,0.15,3.25-0.68,4.77c-0.28,0.51-0.19,1.06,0.24,1.51c0.84,0,1.69,0,2.53,0c0.31-1.53,1-3.08,0.85-4.57
		C146.81,83.52,148.2,80.98,146.62,78.64z"/>
	<path class="st99" d="M166.47,74.95c-0.66-1.19-1.34-2.37-1.69-3.69c-0.42-0.27-0.84-0.55-1.26-0.82c-0.14,0-0.28,0-0.43,0
		c0.96,2.06,1.59,4.27,2.96,6.15c-0.26,1.27-0.62,2.59,1.36,2.87C168.43,77.69,167.42,76.33,166.47,74.95z"/>
	<path class="st100" d="M155.92,92.98c1.88-0.83,2.06-3.14,3.8-4.1c1.85-0.24,1.32-1.85,1.77-2.9c0.05-0.6-0.08-1.15-0.5-1.61
		c0.34-1.81-0.14-3.56-0.42-5.33c-0.56,0-1.13,0-1.69,0c-0.28,2.57-0.32,5.17-1.2,7.68c-0.34,0.97-1.23,1.82-0.91,2.98
		C155.51,90.57,156.01,91.85,155.92,92.98z"/>
	<path class="st101" d="M160.98,84.38c0,0.55,0,1.09,0,1.64c0.25,1.08-0.05,2.1-0.3,3.14c-0.23,0.96-0.32,1.93,1,2.29
		c2.21-1.95,3.19-5.18,2.26-7.49c-0.38-0.79,0.64-2.03-0.84-2.46C162.05,82.23,162.69,84.12,160.98,84.38z"/>
	<path class="st101" d="M163.09,81.51c-0.1-0.69,0.28-1.48-0.42-2.05C162.13,80.27,162.39,80.93,163.09,81.51z"/>
	<path class="st102" d="M163.94,83.97c0.11,2.68-0.92,5.05-2.11,7.38c-0.47,0.47-0.74,0.98-0.42,1.64c0,0.41,0,0.82,0,1.23
		c1.45,0.39,1.75-1.5,3.03-1.45c0.69-0.49,0.92-1.23,1.17-1.96c0.37-2.22,1.18-4.43,0.02-6.65c-0.2-0.31-0.52-0.46-0.84-0.6
		C164.44,83.56,164.12,83.64,163.94,83.97z"/>
	<path class="st103" d="M164.79,83.56c0.14,0.14,0.28,0.27,0.42,0.41c1.31-0.22,1.1-1.34,1.38-2.18c0.22-1.7-0.34-3.25-0.97-4.79
		c-0.58-0.69-1.19-1.36-2.11-1.64C164.03,78.08,165.23,80.7,164.79,83.56z"/>
	<path class="st104" d="M165.63,77c0.08,1.64,0.66,3.25,0.42,4.92c0.65,0.65,0.37,2.02,1.76,2.09c0.75-1.15,0.05-2.32,0.03-3.48
		c-0.07-0.4-0.16-0.8-0.52-1.07c-1.24-0.62-0.77-1.95-1.27-2.87C165.91,76.72,165.77,76.86,165.63,77z"/>
	<path class="st105" d="M156.76,89.71c1.25-2.29,2.17-4.69,2.52-7.27c0.16-1.15-0.05-2.28-0.41-3.39c-1.07-1.49-0.77-3.54-2.11-4.92
		c-0.3,0.62-0.59,1.19-0.17,1.91c1.25,2.12,1.21,4.41,0.94,6.75C157.27,85.1,156.28,87.33,156.76,89.71z"/>
	<path class="st106" d="M132.27,75.36c0.92-1.28,1.61-2.73,2.95-3.69c-1.33,0.19-2.54,0.28-3.53-1c-0.48-0.62-1.35-1.03-2.4-0.91
		c-2.4,0.29-4.62-1.52-7.14-0.58c-1.36,0.51-2.64,1.18-4.32,0.22c-0.85-0.49-2.57,0.83-2.87,1.49c-1.08,2.33-3.38,1.64-5.03,2.44
		c-2,2.2-3.41,4.73-4.4,7.49c-0.3,0.82-0.56,1.66-1.17,2.34c0.01,0.27,0.03,0.55,0.04,0.82c-0.3,0.66-0.57,1.33-0.03,2
		c0.15,0.56,0.3,1.13,0.45,1.69c0.66-0.5,0.28-1.66,1.32-1.94c0.26-0.07,0.67-0.38,0.69-0.35c1.46,1.85,1.17-0.38,1.59-0.74
		c0.87,0.38,1.15,1,1.02,1.72c-0.4,2.2,1.13,3.08,2.58,4.33c1.63,1.41,2.9,3.23,4.83,4.34c1.95,1.13,4.14,1.84,5.99,3.16
		c0.46,0.33,1.07,0.03,1.62-0.14c0.67-0.2,1.39-0.29,2.04,0.06c1.83,0.98,4.54,0.68,5.86-0.71c0.17-0.18,0.22-0.48,0.33-0.72
		c-1.86-0.14-3.62,0.56-5.46,0.72c-2.98,0.26-5.21-0.45-7.22-2.53c-2.54-2.62-4.88-5.35-6.68-8.52c-0.41-0.72-0.52-1.36-0.38-2.13
		c0.66-3.57,2.95-6.17,5.58-8.5c0.49-0.43,1.55-0.26,2.34-0.37C124.66,73.75,128.46,74.56,132.27,75.36z"/>
	<path class="st107" d="M141.98,83.99c-1.24,0.37-2.51,0.44-3.8,0.4c0.38,1.6,0.93,3.19-0.6,4.61c-0.3,0.28-0.18,1-0.25,1.52
		c1.55,0,3.1,0,4.64,0c0.6-0.61,0.33-1.44,0.56-2.12c0.32-0.91-1.22-1.98,0.39-2.84C143.34,85.35,142.59,84.39,141.98,83.99z"/>
	<path class="st108" d="M141.98,83.99c1.1,1.44-0.67,2.83-0.05,4.32c0.27,0.64,0.04,1.47,0.05,2.21c0.28,0,0.56,0,0.84,0
		c0.28,0,0.56,0,0.85,0c-0.28-1.53,1.32-2.54,1.03-4.28c-0.18-1.06-0.32-2.35-0.2-3.54C143.65,83.13,142.82,83.56,141.98,83.99z"/>
	<path class="st109" d="M104.36,85.97c0.01-0.67,0.02-1.33,0.03-2c-1.58,2.52-1.54,5.34-1.16,8.04c0.35,2.45,0.75,4.9,1.82,7.31
		c1.37,3.08,3.17,5.65,5.5,8.04c0.9,0.92,2.03,1.55,2.85,2.55c0.58,0.71,1.39,1.11,2.39,0.7c-0.45-0.93-1.76-1.02-2.12-2.05
		c-6.55-5.53-9.88-12.46-9.67-20.94C104.01,87.05,103.87,86.45,104.36,85.97z"/>
	<path class="st110" d="M106.08,93.39c0.13,1.08,0.86,1.91,1.26,2.87c0.46,0.12,0.71,0.71,1.28,0.58c1.86-0.43,3.29,0.52,4.81,1.31
		c1.27,0.66,2.47,1.57,4.05,1.39c-2.89-2.35-5.83-4.62-9.38-6.03C107.38,93.23,106.76,93.27,106.08,93.39z"/>
	<path class="st111" d="M161.4,92.99c0.29-0.51,0.49-1.04,0.42-1.64c-0.96-0.47-0.89-1.2-0.65-2.06c0.29-1.09,0.58-2.22-0.19-3.27
		c-0.5,0.92-0.02,2.26-1.27,2.87c0.48,1.65-0.64,2.85-1.45,3.98c-1.62,2.24-2.89,4.63-4.04,7.09c0.56,0,1.13,0,1.69,0
		C157.74,97.63,159.57,95.31,161.4,92.99z"/>
	<path class="st96" d="M150.85,76.59c0.03,0.83,0.59,1.28,1.27,1.64C152.08,77.4,151.52,76.95,150.85,76.59z"/>
	<path class="st112" d="M157.6,101.19c0.33,1.37-1.6,1.91-1.27,3.28c0.37,0.16,0.68,0.04,0.96-0.18c2.15-1.66,3.85-3.73,5.66-5.71
		c0.38-0.42,0.52-0.96,0.3-1.53c-0.17-0.29-0.41-0.49-0.72-0.63c-1.85-0.62-1.79,1.04-2.41,1.9
		C159.49,99.43,158.83,100.55,157.6,101.19z"/>
	<path class="st113" d="M160.14,98.31c1.1-0.18,0.9-2.24,2.53-1.64c0.07-0.06,0.14-0.12,0.21-0.18c0.29-0.85,0.78-1.59,1.33-2.31
		c0.2-0.52,0.46-1.04,0.15-1.61c-1.69-0.64-1.91,1.2-2.96,1.64C161.33,95.68,159.89,96.75,160.14,98.31z"/>
	<path class="st114" d="M147.89,117.56c0.89,0.18,1.69-0.3,2.54-0.37c1.13-0.3,2.25-0.6,3.38-0.9c2.93-1.7,5.14-4.26,7.91-6.16
		c0.53-0.36,0.99-1.02,0.43-1.77c-0.48-0.29-1.01-0.32-1.56-0.28c-0.72,0.02-1.16,0.55-1.72,0.87c-2.09,2.54-4.25,4.87-7.67,5.92
		C149.97,115.27,148.73,116.36,147.89,117.56z"/>
	<path class="st115" d="M158.87,108.97c0.56-0.14,1.13-0.27,1.69-0.41c1.69-1.5,3.67-2.81,3.82-5.35c-0.09-0.42-0.25-0.8-0.74-0.92
		c-1.53,1.36-3.45,2.42-3.93,4.63C159.43,107.61,159.15,108.29,158.87,108.97z"/>
	<path class="st116" d="M151.69,111.84c0.28,0,0.56,0,0.85,0c1.15,0.14,1.85-0.57,2.34-1.38c0.46-0.76,1.12-1.15,1.88-1.49
		c0.43-0.79,0.78-1.64,1.69-2.05c0.14,0,0.28,0,0.42,0c0.54-0.58,1.19-1.12,0.84-2.05c-1.65-0.36-1.91,1.23-2.49,1.97
		C155.66,108.84,153.13,109.77,151.69,111.84z"/>
	<path class="st117" d="M159.71,104.87c-0.28,0.68-0.56,1.37-0.84,2.05c0.28,0,0.56,0,0.85,0c1.06-1.67,3-2.63,3.8-4.51
		c0.57-0.27,0.79-0.68,0.52-1.27c-1.52-0.95-1.74,0.99-2.75,1.16c-0.29,0.11-0.55,0.26-0.72,0.52
		C160.28,103.51,160,104.19,159.71,104.87z"/>
	<path class="st117" d="M158.45,106.92c-1.23,0.17-1.73,0.9-1.69,2.05C157.63,108.53,157.87,107.6,158.45,106.92z"/>
	<path class="st118" d="M162.25,108.56c-0.82,2.07-3.07,2.77-4.54,4.22c-1.2,1.18-2.51,2.44-3.9,3.51c0.14,0.02,0.28,0.04,0.42,0.05
		c1.12-0.41,2.25-0.83,3.37-1.24c0.14-0.13,0.29-0.27,0.43-0.4c0.5-0.4,1.05-0.69,1.69-0.81c0.14,0,0.27-0.01,0.41-0.04
		c0.14-0.14,0.28-0.28,0.42-0.42c0.08-0.44-0.49-0.95,0.44-1.29c1.11-0.41,1.86-1.4,2.53-2.36c0.14-0.55,0.28-1.09,0.42-1.64
		c-0.28,0-0.56,0-0.85,0C162.6,107.88,162.25,107.88,162.25,108.56z"/>
	<path class="st119" d="M160.56,102.82c0.28,0,0.56,0,0.84,0c0.6-1.21,1.62-2.15,2.25-3.35c0.4-0.77,0.96-1.53,0.36-2.45
		c-0.32-0.18-0.63-0.17-0.92,0.05c-0.91,2.49-3.29,3.84-4.87,5.82c-0.5,0.62-1.25,1.05-1.89,1.56c-1.56,1.89-3.68,3.29-5.07,5.33
		c2.21-1.06,4.2-2.44,5.76-4.3C158.02,104.32,159.1,103.36,160.56,102.82z"/>
	<path class="st119" d="M146.62,112.66c2.08-0.15,3.42-1.42,4.65-2.87C148.74,109.26,148.27,111.86,146.62,112.66z"/>
	<path class="st93" d="M159.72,113.89c-0.96-0.51-1.3,0.2-1.69,0.81C158.7,114.64,159.28,114.41,159.72,113.89z"/>
	<path class="st120" d="M175.34,93.8c0.14-0.28,0.27-0.55,0.41-0.83c-1.46-0.71-0.62-2.22-1.19-3.29c-1.07-1.99-1.43-2.17-3.22-0.79
		c-0.06,0.04-0.42-0.27-0.63-0.42c-0.08,0.07-0.15,0.14-0.23,0.22c-0.46,0.95-0.22,2.01-0.49,3c-0.06,0.53,0.08,1,0.45,1.39
		c0.4,0.29,0.77,0.59,1.27,0.1c0.79-0.79,1.14-0.77,1.81,0.1C173.99,93.93,174.33,94.93,175.34,93.8z"/>
	<path class="st121" d="M170.27,83.56c-0.44-0.25-0.61-0.89-1.27-0.82c-1.01,1.4,0.04,2.9-0.25,4.33c0.47,0.7,0.85,1.51,1.93,1.41
		l0,0c0.55-0.94,0.59-1.88,0.02-2.82C170.32,85,170.23,84.3,170.27,83.56z"/>
	<path class="st122" d="M169.01,87.25c0.83-1.5-0.18-3.01,0-4.51c0.06-0.6-0.13-1.13-0.42-1.64c-0.36-0.32-0.69-0.72-1.26-0.41
		c0.14,1.09,0.28,2.19,0.42,3.28c-0.35,0.33-0.41,0.75-0.4,1.19c0.1,0.85-0.23,1.71,0.01,2.55c0.21,0.71,0.21,1.63,1.35,1.64
		C169.51,88.74,169.6,88.04,169.01,87.25z"/>
	<path class="st123" d="M167.32,80.69c0.42,0.14,0.84,0.27,1.26,0.41c0.08-1.66-0.03-3.3-0.42-4.92c-0.56-0.41-1.13-0.82-1.69-1.23
		c0.37,1.49,1.1,2.91,0.84,4.51C167.32,79.87,167.32,80.28,167.32,80.69z"/>
	<path class="st124" d="M173.23,98.31c0.15-0.95,1.37-1.38,1.26-2.46c-1.32-1.24-2.87-0.86-4.41-0.61c-0.4,0.31-0.74,0.67-0.96,1.12
		c-0.26,0.86-0.59,1.7-0.51,2.62c0.04,0.19,0.13,0.36,0.24,0.52C170.3,99.06,171.89,99.11,173.23,98.31z"/>
	<path class="st125" d="M170.28,95.44c1.41,0.1,2.84-0.03,4.22,0.41c0.28-0.68,0.56-1.37,0.85-2.05c-0.61,0.37-1.07,0.15-1.39-0.38
		c-1.03-1.69-1.36-1.73-2.67-0.32c-0.07,0.07-0.38-0.08-0.58-0.12C169.61,93.65,169.59,94.49,170.28,95.44z"/>
	<path class="st126" d="M173.23,98.31c-1.41,0.41-3.2-0.44-4.22,1.23c-0.99,0.54-2,1.08-1.27,2.46c1.9,0.98,2.94-0.52,4.06-1.45
		C172.45,100,172.76,99.07,173.23,98.31z"/>
	<path class="st127" d="M162.25,108.56c0.18-0.33,0.5-0.4,0.85-0.41c0.03-1.56,1.69-2.06,2.29-3.29c0.26-0.54,0.77-1.05,1.09-1.63
		c-0.29-1.15-1.11-0.48-1.73-0.48c-0.31,0.09-0.56,0.28-0.8,0.49c0.31,1.56-1.25,2.1-1.84,3.18c-0.42,0.76-1.02,1.43-1.54,2.15
		C161.12,108.56,161.69,108.56,162.25,108.56z"/>
	<path class="st128" d="M164.78,103.23c0.56,0.15,1.13-0.74,1.69,0c0.42-0.41,0.84-0.82,1.27-1.23c-0.2-1.12,1.06-1.54,1.27-2.46
		c0-0.14,0-0.27,0-0.41c-0.37-0.32-0.78-0.38-1.24-0.24c-1.08,0.65-2.01,1.44-2.67,2.5C164.74,101.96,164.24,102.52,164.78,103.23z"
		/>
	<path class="st129" d="M167.74,85.2c0-0.41,0-0.82,0-1.23c-0.61-0.65-0.66-1.72-1.69-2.05c-0.18,0.72-0.27,1.48-0.84,2.05
		c0.95,2.32,0.07,4.65,0,6.97c0.35,0.12,0.55-0.08,0.73-0.32C166.92,88.93,167.58,87.14,167.74,85.2z"/>
	<path class="st130" d="M165.63,90.52c-0.14,0.14-0.28,0.27-0.42,0.41c-0.28,0.55-0.56,1.09-0.85,1.64
		c-0.29,0.51-0.49,1.04-0.42,1.64c-0.63,0.72-0.67,1.72-1.27,2.46v0c0.14,0.14,0.28,0.27,0.42,0.41c0.28,0,0.56,0,0.85,0
		c1.45,0.55,1.24-1.19,2.11-1.43c0.47-0.6,0.24-1.31,0.34-1.98C166.29,92.59,167.28,91.25,165.63,90.52z"/>
	<path class="st112" d="M162.67,96.67c1.28-0.4,1.11-1.51,1.27-2.46C162.84,94.71,162.56,95.59,162.67,96.67z"/>
	<path class="st131" d="M164.78,103.23c0.22-1.88,2.21-2.57,2.96-4.1c0.33-0.34,0.37-0.72,0.16-1.14c-1.13-0.62-1.66,0.47-2.45,0.82
		c-0.8,0.61-1.87,1.06-1.52,2.36c-0.14,0.41-0.28,0.82-0.42,1.23c0.34,0.18,0.41,0.48,0.42,0.82
		C164.22,103.24,164.5,103.23,164.78,103.23z"/>
	<path class="st132" d="M163.94,101.18c0.29-0.9,0.98-1.48,1.69-2.05c0.63-0.84,1.04-1.74,0.9-2.81c-0.06-0.34-0.19-0.65-0.48-0.88
		c-1.51-0.43-0.93,1.67-2.11,1.64c0.02,1.54-0.98,2.65-1.87,3.71c-0.57,0.67-0.66,1.29-0.66,2.03
		C162.78,103.05,162.44,100.78,163.94,101.18z"/>
	<path class="st133" d="M169.01,87.25c0.04,0.72-0.02,1.42-0.43,2.05c-0.17,0.16-0.3,0.35-0.39,0.56c-0.22,1-0.29,1.99,0.15,2.95
		c1.23,0.67,1.25-0.76,1.94-1.05c0.85-1.01,0.24-2.19,0.42-3.28C169.95,88.3,169.92,87.21,169.01,87.25z"/>
	<path class="st134" d="M170.27,91.76c-1.09-0.28-1.18,0.75-1.69,1.23c-0.72,0.25-0.83,0.82-0.81,1.46c0.05,0.4,0.23,0.74,0.48,1.05
		c0.32,0.35,0.66,0.69,1.17,0.77c0.4-0.15,0.68-0.43,0.84-0.82c-0.01-0.84-0.08-1.7,0.42-2.46
		C170.56,92.58,170.42,92.17,170.27,91.76z"/>
	<path class="st135" d="M168.58,89.71c0-0.14,0-0.27,0-0.41c-1.25-1.18-0.47-2.75-0.84-4.1c-0.7,1.78-1.41,3.55-2.11,5.33
		c0.99,0.99,0.02,2.22,0.42,3.28C168.22,93.21,167.99,91.22,168.58,89.71z"/>
	<path class="st136" d="M169.43,96.26c-0.16-0.39-0.44-0.66-0.85-0.82c-1.39,0.46-1.41,1.36-0.85,2.46c0,0.41,0,0.82,0,1.23
		c0.42,0,0.85,0,1.27,0C169.15,98.18,169.29,97.22,169.43,96.26z"/>
	<path class="st137" d="M168.58,89.71c-0.84,1.37-1.69,2.73-2.53,4.1c-0.41,0.55-0.02,1.09,0,1.64c0,0.27,0,0.55,0,0.82
		c1.53,0.46,1.33-1.19,2.11-1.64c-0.06-0.6,0.13-1.13,0.42-1.64C168.59,91.89,168.58,90.8,168.58,89.71z"/>
	<path class="st138" d="M168.16,94.63c-1.51-0.43-0.93,1.67-2.11,1.64c-0.14,0.96-0.28,1.91-0.42,2.87c0.7-0.41,1.41-0.82,2.11-1.23
		c0.04-0.9,0.23-1.75,0.85-2.46C168.44,95.17,168.3,94.9,168.16,94.63z"/>
</g>
</svg>
