<?xml version="1.0" encoding="UTF-8" standalone="no"?>
<!-- Created with Inkscape (http://www.inkscape.org/) -->

<svg
   id="svg3355"
   version="1.1"
   xml:space="preserve"
   width="500"
   height="500"
   viewBox="0 0 500 500"
   sodipodi:docname="psuti.svg"
   inkscape:version="1.1.2 (0a00cf5339, 2022-02-04)"
   xmlns:inkscape="http://www.inkscape.org/namespaces/inkscape"
   xmlns:sodipodi="http://sodipodi.sourceforge.net/DTD/sodipodi-0.dtd"
   xmlns="http://www.w3.org/2000/svg"
   xmlns:svg="http://www.w3.org/2000/svg"
   xmlns:rdf="http://www.w3.org/1999/02/22-rdf-syntax-ns#"
   xmlns:cc="http://creativecommons.org/ns#"
   xmlns:dc="http://purl.org/dc/elements/1.1/"><sodipodi:namedview
     id="namedview49"
     pagecolor="#ffffff"
     bordercolor="#666666"
     borderopacity="1.0"
     inkscape:pageshadow="2"
     inkscape:pageopacity="0.0"
     inkscape:pagecheckerboard="0"
     showgrid="false"
     inkscape:zoom="0.6842268"
     inkscape:cx="206.07202"
     inkscape:cy="227.99458"
     inkscape:window-width="1551"
     inkscape:window-height="991"
     inkscape:window-x="26"
     inkscape:window-y="23"
     inkscape:window-maximized="0"
     inkscape:current-layer="svg3355" /><metadata
     id="metadata3361"><rdf:RDF><cc:Work
         rdf:about=""><dc:format>image/svg+xml</dc:format><dc:type
           rdf:resource="http://purl.org/dc/dcmitype/StillImage" /></cc:Work></rdf:RDF></metadata><defs
     id="defs3359"><clipPath
       clipPathUnits="userSpaceOnUse"
       id="clipPath3369"><path
         d="M 0,600 H 800 V 0 H 0 Z"
         id="path3371" /></clipPath><clipPath
       clipPathUnits="userSpaceOnUse"
       id="clipPath3433"><path
         d="M 0,600 H 800 V 0 H 0 Z"
         id="path3435" /></clipPath></defs><g
     id="g3363"
     transform="matrix(1.25,0,0,-1.25,-229.39065,623.30778)"><g
       id="g505"><g
         id="g3365"><g
           id="g3367"
           clip-path="url(#clipPath3369)"><g
             id="g3373"
             transform="translate(297.1391,299.5513)"><path
               d="M 0,0 C 0,-23.472 -19.028,-42.5 -42.5,-42.5 -65.972,-42.5 -85,-23.472 -85,0 -85,23.472 -65.972,42.5 -42.5,42.5 -19.028,42.5 0,23.472 0,0"
               style="fill:#1b679a;fill-opacity:1;fill-rule:nonzero;stroke:none"
               id="path3375" /></g><g
             id="g3377"
             transform="translate(293.6262,301.855)"><path
               d="m 0,0 c 0,-20.088 -16.284,-36.372 -36.372,-36.372 -20.088,0 -36.372,16.284 -36.372,36.372 0,20.088 16.284,36.372 36.372,36.372 C -16.284,36.372 0,20.088 0,0"
               style="fill:#378db3;fill-opacity:1;fill-rule:nonzero;stroke:none"
               id="path3379" /></g><g
             id="g3381"
             transform="translate(289.3,303.5467)"><path
               d="m 0,0 c 0,-16.674 -13.517,-30.192 -30.192,-30.192 -16.674,0 -30.192,13.518 -30.192,30.192 0,16.674 13.518,30.192 30.192,30.192 C -13.517,30.192 0,16.674 0,0"
               style="fill:#3fb0cb;fill-opacity:1;fill-rule:nonzero;stroke:none"
               id="path3383" /></g><g
             id="g3385"
             transform="translate(284.9448,305.6771)"><path
               d="m 0,0 c 0,-13.04 -10.571,-23.612 -23.612,-23.612 -13.04,0 -23.611,10.572 -23.611,23.612 0,13.04 10.571,23.612 23.611,23.612 C -10.571,23.612 0,13.04 0,0"
               style="fill:#5dcae5;fill-opacity:1;fill-rule:nonzero;stroke:none"
               id="path3387" /></g><g
             id="g3389"
             transform="translate(280.7697,307.8597)"><path
               d="m 0,0 c 0,-9.6 -7.782,-17.382 -17.382,-17.382 -9.599,0 -17.381,7.782 -17.381,17.382 0,9.6 7.782,17.382 17.381,17.382 C -7.782,17.382 0,9.6 0,0"
               style="fill:#85d3e8;fill-opacity:1;fill-rule:nonzero;stroke:none"
               id="path3391" /></g><g
             id="g3393"
             transform="translate(276.2029,310.0008)"><path
               d="m 0,0 c 0,-5.96 -4.831,-10.791 -10.791,-10.791 -5.96,0 -10.791,4.831 -10.791,10.791 0,5.96 4.831,10.791 10.791,10.791 C -4.831,10.791 0,5.96 0,0"
               style="fill:#a5def1;fill-opacity:1;fill-rule:nonzero;stroke:none"
               id="path3395" /></g><g
             id="g3397"
             transform="translate(271.8849,311.8896)"><path
               d="m 0,0 c 0,-2.346 -1.902,-4.248 -4.248,-4.248 -2.346,0 -4.248,1.902 -4.248,4.248 0,2.346 1.902,4.248 4.248,4.248 C -1.902,4.248 0,2.346 0,0"
               style="fill:#ffffff;fill-opacity:1;fill-rule:nonzero;stroke:none"
               id="path3399" /></g><g
             id="g3401"
             transform="translate(256.8052,336.9644)"><path
               d="m 0,0 c -19.496,0 -35.356,-15.861 -35.356,-35.356 0,-19.496 15.86,-35.356 35.356,-35.356 19.496,0 35.357,15.86 35.357,35.356 C 35.357,-15.861 19.496,0 0,0 m 0,-72.25 c -20.343,0 -36.893,16.551 -36.893,36.894 0,20.342 16.55,36.892 36.893,36.892 20.343,0 36.893,-16.55 36.893,-36.892 C 36.893,-55.699 20.343,-72.25 0,-72.25"
               style="fill:#ffffff;fill-opacity:1;fill-rule:nonzero;stroke:none"
               id="path3403" /></g><g
             id="g3405"
             transform="translate(258.9717,332.7549)"><path
               d="m 0,0 c -16.041,0 -29.091,-13.05 -29.091,-29.091 0,-16.041 13.05,-29.091 29.091,-29.091 16.041,0 29.091,13.05 29.091,29.091 C 29.091,-13.05 16.041,0 0,0 m 0,-59.498 c -16.767,0 -30.408,13.641 -30.408,30.407 0,16.767 13.641,30.408 30.408,30.408 16.767,0 30.408,-13.641 30.408,-30.408 0,-16.766 -13.641,-30.407 -30.408,-30.407"
               style="fill:#d2ecf3;fill-opacity:1;fill-rule:nonzero;stroke:none"
               id="path3407" /></g><g
             id="g3409"
             transform="translate(261.1382,328.5459)"><path
               d="m 0,0 c -12.586,0 -22.825,-10.239 -22.825,-22.825 0,-12.586 10.239,-22.825 22.825,-22.825 12.586,0 22.825,10.239 22.825,22.825 C 22.825,-10.239 12.586,0 0,0 m 0,-46.748 c -13.191,0 -23.923,10.731 -23.923,23.923 0,13.191 10.732,23.923 23.923,23.923 13.191,0 23.923,-10.732 23.923,-23.923 0,-13.192 -10.732,-23.923 -23.923,-23.923"
               style="fill:#c7e9f3;fill-opacity:1;fill-rule:nonzero;stroke:none"
               id="path3411" /></g><g
             id="g3413"
             transform="translate(263.3042,324.3364)"><path
               d="m 0,0 c -9.131,0 -16.56,-7.429 -16.56,-16.56 0,-9.131 7.429,-16.559 16.56,-16.559 9.131,0 16.56,7.428 16.56,16.559 C 16.56,-7.429 9.131,0 0,0 m 0,-33.998 c -9.615,0 -17.437,7.824 -17.437,17.438 0,9.616 7.822,17.438 17.437,17.438 9.615,0 17.437,-7.822 17.437,-17.438 0,-9.614 -7.822,-17.438 -17.437,-17.438"
               style="fill:#c4e8f2;fill-opacity:1;fill-rule:nonzero;stroke:none"
               id="path3415" /></g><g
             id="g3417"
             transform="translate(265.4707,320.1274)"><path
               d="m 0,0 c -5.676,0 -10.294,-4.618 -10.294,-10.294 0,-5.676 4.618,-10.294 10.294,-10.294 5.676,0 10.294,4.618 10.294,10.294 C 10.294,-4.618 5.676,0 0,0 m 0,-21.247 c -6.04,0 -10.953,4.914 -10.953,10.953 0,6.039 4.913,10.952 10.953,10.952 6.039,0 10.952,-4.913 10.952,-10.952 0,-6.039 -4.913,-10.953 -10.952,-10.953"
               style="fill:#c8eaf5;fill-opacity:1;fill-rule:nonzero;stroke:none"
               id="path3419" /></g></g></g><g
         id="g3421"
         transform="translate(318.6704,276.701)"><path
           d="M 0,0 V 46.702 H 42.031 V 0 H 29.689 V 35.693 H 12.342 V 0 Z"
           style="fill:#1b679a;fill-opacity:1;fill-rule:nonzero;stroke:none"
           id="path3423" /></g><g
         id="g3425"
         transform="translate(372.937,276.701)"><path
           d="M 0,0 V 46.702 H 33.692 V 35.693 H 12.342 V 0 Z"
           style="fill:#1b679a;fill-opacity:1;fill-rule:nonzero;stroke:none"
           id="path3427" /></g><g
         id="g3429"><g
           id="g3431"
           clip-path="url(#clipPath3433)"><g
             id="g3437"
             transform="translate(439.0254,281.7381)"><path
               d="m 0,0 c -1.157,-1.49 -2.392,-2.68 -3.703,-3.569 -1.313,-0.89 -2.681,-1.523 -4.104,-1.902 -1.423,-0.377 -2.935,-0.567 -4.536,-0.567 -1.201,0 -2.425,0.123 -3.67,0.367 -1.245,0.245 -2.512,0.546 -3.802,0.901 V 5.437 c 0.8,-0.311 1.678,-0.544 2.635,-0.7 0.956,-0.156 1.878,-0.233 2.769,-0.233 1.468,0 2.712,0.233 3.736,0.7 1.023,0.467 1.801,1.301 2.335,2.502 l 0.734,1.602 -18.213,32.357 h 13.676 L -1.868,20.382 6.538,41.665 H 20.215 L 3.335,5.638 C 2.268,3.369 1.155,1.49 0,0"
               style="fill:#1b679a;fill-opacity:1;fill-rule:nonzero;stroke:none"
               id="path3439" /></g><g
             id="g3441"
             transform="translate(504.5068,323.4026)"><path
               d="m 0,0 v -11.008 h -13.143 v -35.694 h -12.342 v 35.694 h -13.21 V 0 Z"
               style="fill:#1b679a;fill-opacity:1;fill-rule:nonzero;stroke:none"
               id="path3443" /></g><g
             id="g3445"
             transform="translate(542.8955,276.701)"><path
               d="m 0,0 v 19.081 c 0,1.29 0.021,2.612 0.066,3.97 0.043,1.356 0.112,2.591 0.202,3.702 L -18.012,0 h -11.675 v 46.702 h 12.341 V 27.621 c 0,-1.291 -0.023,-2.625 -0.066,-4.003 -0.045,-1.38 -0.111,-2.625 -0.199,-3.736 L 0.668,46.702 H 12.342 V 0 Z"
               style="fill:#1b679a;fill-opacity:1;fill-rule:nonzero;stroke:none"
               id="path3447" /></g></g></g></g></g></svg>
