<?xml version="1.0" encoding="utf-8"?>
<!-- Generator: Adobe Illustrator 24.3.0, SVG Export Plug-In . SVG Version: 6.00 Build 0)  -->
<svg version="1.1" id="Слой_1" xmlns="http://www.w3.org/2000/svg" xmlns:xlink="http://www.w3.org/1999/xlink" x="0px" y="0px"
	 viewBox="0 0 520 200" style="enable-background:new 0 0 520 200;" xml:space="preserve">
<style type="text/css">
	.st0{fill:#E86823;}
	.st1{fill:#9C2483;}
	.st2{fill:#1C3243;}
</style>
<g>
	<g>
		<g>
			<path class="st0" d="M93.51,177.87H22.89c-5.11,0-8.1-4.55-8.1-8.53c0-2.36,0.96-4.51,2.49-6.04l30.83-30.83L93.51,177.87z"/>
			<path class="st1" d="M22.89,177.87c-5.34,0-12.01-4.25-12.01-12.74V70.18c0-12.84-0.66-21.84,8.5-31.03L53.75,4.81l60.96,61.06
				l-97.44,97.4c-1.56,1.56-2.49,3.68-2.49,6.04C14.79,173.29,17.78,177.87,22.89,177.87"/>
		</g>
	</g>
	<g>
		<path class="st2" d="M142.66,177.77c-7.37,0-12.81-5.21-12.81-13.01c0-7.8,5.64-13.01,12.98-13.01c5.21,0,8.99,2.75,10.79,6.11
			l-3.98,2.39c-1.53-2.59-3.62-4.15-6.97-4.15c-4.41,0-8.03,3.32-8.03,8.66c0,5.14,3.58,8.66,8.03,8.66c3.15,0,5.48-1.39,7.3-4.02
			l3.98,2.26C151.09,175.81,148.13,177.77,142.66,177.77z"/>
		<path class="st2" d="M165.65,177.77c-4.88,0-9.69-3.15-9.69-9.36s4.81-9.36,9.69-9.36s9.69,3.15,9.69,9.36
			C175.34,174.65,170.5,177.77,165.65,177.77z M170.76,168.41c0-3.25-2.46-5.14-5.11-5.14s-5.11,1.89-5.11,5.14s2.46,5.14,5.11,5.14
			C168.28,173.56,170.76,171.67,170.76,168.41z"/>
		<path class="st2" d="M176.84,177.27v-3.98c0,0,0.46,0.2,1.26,0.2c1.1,0,1.66-0.76,1.83-3.95l0.56-10.06h13.94v17.72h-4.51v-13.67
			h-5.51l-0.33,6.14c-0.27,5.11-1.69,7.77-5.67,7.77C177.57,177.54,176.84,177.27,176.84,177.27z"/>
		<path class="st2" d="M209.59,174.45c-1.26,2.22-3.39,3.32-5.94,3.32c-3.52,0-5.97-2.19-5.97-5.54c0-3.62,2.72-5.24,6.34-5.74
			l5.34-0.73v-0.9c0-1.73-1.06-2.69-3.32-2.69c-1.96,0-3.12,0.9-3.12,1.99c0,0.13,0,0.37,0.03,0.5l-4.25,0.46
			c-0.07-0.33-0.07-0.66-0.07-0.93c0-2.75,2.75-5.18,7.4-5.18c4.98,0,7.83,2.12,7.83,6.44v7.4c0,1.92,0.17,3.19,0.56,4.41h-4.48
			C209.76,176.58,209.59,175.62,209.59,174.45z M209.33,169.21v-0.33l-4.28,0.6c-1.92,0.3-2.95,1-2.95,2.49
			c0,1.43,1.13,2.16,2.52,2.16C207.24,174.12,209.33,172.63,209.33,169.21z"/>
		<path class="st2" d="M222.24,159.55v2.52c1.19-1.73,3.48-3.05,6.14-3.05c4.45,0,8.16,3.45,8.16,9.36c0,5.67-3.82,9.36-8.53,9.36
			c-2.49,0-4.48-1.06-5.74-2.69v9.49h-4.51v-25.02h4.48V159.55z M221.97,168.41c0,2.89,2.12,5.14,5.01,5.14s5.01-2.26,5.01-5.14
			s-2.12-5.14-5.01-5.14C224.06,163.27,221.97,165.53,221.97,168.41z"/>
	</g>
	<g>
		<polygon class="st2" points="427.26,101.18 417.04,101.18 404.86,113.49 404.86,101.18 396.2,101.18 396.2,135.16 404.86,135.16 
			404.86,121.09 417.24,135.16 427.66,135.16 411.63,116.91 		"/>
		<path class="st2" d="M153.57,87.17h-21.8v47.95h9.06V118.4h12.74c10.82,0,17.95-5.54,17.95-15.63S164.39,87.17,153.57,87.17
			 M153.31,110.34h-12.48V95.27h12.48c6.31,0,9.19,3.02,9.19,7.53C162.5,107.32,159.61,110.34,153.31,110.34"/>
		<path class="st2" d="M191.94,100.22c-9.33,0-18.55,6.04-18.55,17.95c0,11.91,9.26,17.95,18.55,17.95
			c9.33,0,18.55-6.04,18.55-17.95C210.52,106.22,201.26,100.22,191.94,100.22 M191.94,128.03c-5.08,0-9.79-3.62-9.79-9.86
			c0-6.24,4.71-9.86,9.79-9.86c5.08,0,9.79,3.62,9.79,9.86C201.73,124.38,197.02,128.03,191.94,128.03"/>
		<path class="st2" d="M232.56,128.03c-5.21,0-9.06-3.78-9.06-9.86c0-6.04,3.98-9.86,9.06-9.86c3.09,0,5.74,1.43,7.87,4.65l7.4-4.25
			c-2.46-5.28-7.8-8.5-15.2-8.5c-9.66,0-17.89,7.14-17.89,17.95s7.8,17.95,17.89,17.95c7.27,0,12.11-3.29,15.56-9.13l-7.14-3.92
			C239,125.97,236.81,128.03,232.56,128.03"/>
		<path class="st2" d="M324.45,120.43c-0.4,5.21-1.43,6.37-3.22,6.37c-1.23,0-1.79-0.13-2.62-0.37l0.03,8.79
			c0,0,1.06,0.33,3.05,0.33c7.33,0,10.06-4.71,10.75-14.8l0.83-11.85H343v26.18h8.63v-33.92h-25.75L324.45,120.43z"/>
		<path class="st2" d="M299.99,100.22c-9.86,0-17.89,7.2-17.89,17.95c0,10.75,8.03,17.95,17.46,17.95c7.47,0,12.18-2.82,15.63-8.63
			l-6.84-3.42c-2.12,2.69-4.05,4.65-8.63,4.65c-5.08,0-8.76-3.29-9.33-8.5h26.18v-3.02C316.55,107.25,309.72,100.22,299.99,100.22
			 M290.53,113.62c1.23-3.85,4.65-6.84,9.19-6.84c4.81,0,8.03,2.59,8.83,6.84H290.53z"/>
		<path class="st2" d="M374.4,100.22c-9.86,0-17.89,7.2-17.89,17.95c0,10.75,8.03,17.95,17.46,17.95c7.47,0,12.18-2.82,15.63-8.63
			l-6.84-3.42c-2.12,2.69-4.05,4.65-8.63,4.65c-5.08,0-8.76-3.29-9.33-8.5h26.18v-3.02C390.96,107.25,384.12,100.22,374.4,100.22
			 M364.94,113.62c1.23-3.85,4.65-6.84,9.19-6.84c4.81,0,8.03,2.59,8.83,6.84H364.94z"/>
		<polygon class="st2" points="250.84,108.71 261,108.71 261,135.16 269.63,135.16 269.63,108.71 279.78,108.71 279.78,101.18 
			250.84,101.18 		"/>
		<path class="st2" d="M444.78,100.22c-9.33,0-18.55,6.04-18.55,17.95c0,11.91,9.26,17.95,18.55,17.95
			c9.33,0,18.55-6.04,18.55-17.95C463.37,106.22,454.11,100.22,444.78,100.22 M444.78,128.03c-5.08,0-9.79-3.62-9.79-9.86
			c0-6.24,4.71-9.86,9.79-9.86c5.08,0,9.79,3.62,9.79,9.86C454.61,124.38,449.86,128.03,444.78,128.03"/>
		<polygon class="st2" points="497.72,101.15 488.36,124.97 478.97,101.15 467.68,101.15 467.68,135.09 475.91,135.09 
			475.91,113.59 485.01,135.09 491.71,135.09 500.8,113.59 500.8,135.09 509,135.09 509,101.15 		"/>
	</g>
</g>
</svg>
