<?xml version="1.0" encoding="UTF-8"?>
<svg id="_Слой_1" data-name="Слой_1" xmlns="http://www.w3.org/2000/svg" version="1.1" viewBox="0 0 1280 1024">
  <!-- Generator: Adobe Illustrator 29.3.0, SVG Export Plug-In . SVG Version: 2.1.0 Build 91)  -->
  <path d="M493.94,401.09l-71.04,221.03h-78.94l-71.04-221.03h63.15l47.36,154.09,47.36-154.09h63.15Z"/>
  <path d="M572.56,565.6c7.15,3.58,14.42,5.58,21.79,6,10.94.63,20-.68,27.15-3.95,7.15-3.26,10.74-7.74,10.74-13.42,0-8-10.53-13.26-31.57-15.79-17.05-2.1-32.26-6.37-45.63-12.79-13.37-6.42-23.84-14.52-31.42-24.31-7.58-9.79-11.37-20.57-11.37-32.36,0-13.47,3.63-25.62,10.89-36.47,7.26-10.84,17.42-19.31,30.47-25.42,13.05-6.1,27.68-9.16,43.89-9.16,17.26,0,33.79,3.58,49.57,10.74,15.79,7.16,27.36,16.32,34.73,27.47l-49.57,34.42c-2.53-5.47-6.74-10-12.63-13.58-5.9-3.58-12.21-5.37-18.94-5.37-8.21,0-15,1.63-20.37,4.89-5.37,3.27-8.05,7.42-8.05,12.47,0,8.42,9.47,13.69,28.42,15.79,18.31,2.11,34.62,6.42,48.94,12.95,14.31,6.53,25.52,14.63,33.63,24.31,8.1,9.69,12.16,20.42,12.16,32.21,0,13.47-4.26,25.63-12.79,36.47-8.53,10.84-20.32,19.31-35.37,25.42-15.05,6.1-31.95,9.16-50.68,9.16-17.47,0-34.68-3.58-51.62-10.74-16.95-7.15-29.74-16.21-38.36-27.15l49.89-34.73c3.58,5.05,8.94,9.37,16.1,12.95Z"/>
  <path d="M799.58,454.77v31.58h88.41l-6.32,50.52h-82.1v85.25h-59.99v-221.03h157.88l-3.16,53.68h-94.73Z"/>
  <path d="M1007.97,401.09v221.03h-59.99v-221.03h59.99Z"/>
</svg>